<?xml version="1.0" standalone="no"?>
<!DOCTYPE svg PUBLIC "-//W3C//DTD SVG 20010904//EN"
 "http://www.w3.org/TR/2001/REC-SVG-20010904/DTD/svg10.dtd">
<svg version="1.0" xmlns="http://www.w3.org/2000/svg"
 width="2000.000000pt" height="2000.000000pt" viewBox="0 0 2000.000000 2000.000000"
 preserveAspectRatio="xMidYMid meet">
<metadata>
Created by potrace 1.16, written by Peter Selinger 2001-2019
</metadata>
<g transform="translate(0.000000,2000.000000) scale(0.100000,-0.100000)"
fill="#000000" stroke="none">
<path d="M11050 11572 c0 -2880 0 -2897 20 -2910 13 -8 20 -8 20 -1 0 5 5 7
10 4 6 -3 10 -2 10 3 0 5 17 7 38 3 34 -6 65 -6 174 -2 34 1 42 7 87 68 27 38
61 82 75 99 27 33 35 61 14 48 -7 -4 -8 -3 -4 5 4 6 11 9 15 6 13 -7 33 14
113 120 83 110 232 307 481 633 356 469 407 537 407 543 0 4 -7 12 -16 20 -55
46 -76 177 -40 251 41 84 113 128 209 128 83 0 157 -42 202 -114 26 -43 30
-59 30 -120 0 -59 -5 -79 -27 -117 -15 -25 -46 -59 -69 -75 -56 -39 -165 -47
-224 -16 l-39 19 -175 -231 c-319 -420 -414 -546 -568 -749 -84 -111 -156
-206 -161 -212 -4 -5 -19 -26 -32 -45 -14 -19 -37 -48 -52 -65 -26 -28 -39
-63 -19 -50 5 3 13 0 17 -6 5 -8 -1 -10 -18 -7 -20 4 -30 -2 -49 -31 -13 -20
-29 -40 -35 -46 -7 -5 -19 -22 -28 -36 l-16 -26 60 3 c33 1 60 -2 60 -7 0 -5
-21 -9 -47 -10 -69 -1 -94 -7 -109 -27 -21 -27 -17 -31 36 -27 27 2 53 -1 56
-7 4 -7 9 -7 13 1 4 6 11 4 17 -7 10 -16 4 -17 -78 -16 -79 1 -90 -1 -103 -20
-23 -32 -19 -36 40 -30 37 4 60 2 70 -6 8 -7 15 -8 15 -3 0 11 430 11 449 -1
8 -5 16 -4 20 2 3 5 34 10 69 11 47 0 62 -3 62 -14 0 -16 -62 -23 -126 -14
-22 3 -49 2 -60 -1 -10 -4 -30 -4 -43 -1 -13 4 -47 4 -75 1 -63 -7 -89 -2 -79
13 5 8 2 8 -8 0 -11 -9 -71 -13 -198 -14 -171 -2 -183 -3 -196 -22 -8 -12 -13
-23 -10 -25 2 -3 60 -4 127 -3 68 1 128 2 133 2 6 0 183 0 395 0 212 0 392 0
400 -1 308 -5 980 -3 980 3 0 5 4 5 10 2 13 -8 305 -9 318 -1 6 3 13 2 17 -4
3 -5 11 -10 16 -10 6 0 7 5 3 12 -5 7 -3 8 5 3 7 -4 173 -8 369 -8 324 0 351
-2 292 -14 -68 -14 -167 -20 -176 -11 -3 3 -20 2 -39 -2 -20 -4 -32 -4 -29 1
5 8 -21 6 -84 -7 -13 -3 -21 -1 -19 3 3 4 -99 6 -226 5 -128 -2 -268 -4 -312
-3 -153 0 -220 0 -265 0 -25 0 -104 1 -177 1 -72 1 -136 -1 -142 -5 -6 -3 -11
-1 -11 5 0 6 -4 9 -9 6 -5 -4 -35 -6 -68 -6 -32 0 -67 0 -78 0 -19 -1 -29 -1
-57 1 -7 0 -87 0 -178 0 -91 0 -174 0 -185 1 -11 0 -159 0 -330 -1 -170 0
-341 0 -380 1 -199 3 -330 -5 -347 -20 -44 -38 -31 -39 278 -32 45 2 86 1 90
-1 5 -3 23 -3 39 -2 40 4 66 5 90 4 11 -1 54 -1 95 -1 41 -1 92 -2 113 -3 20
-1 37 1 37 4 0 8 33 6 40 -2 3 -4 28 -3 55 1 28 4 53 6 57 3 6 -3 270 -5 408
-2 8 0 78 0 155 0 77 0 147 0 155 0 12 1 84 0 185 -1 108 -1 234 1 252 4 12 3
35 1 51 -3 16 -5 36 -5 45 1 11 6 17 5 17 -1 0 -6 6 -8 14 -5 23 9 146 10 146
1 0 -5 5 -5 12 -1 13 8 377 8 502 0 45 -3 143 -8 219 -12 75 -3 137 -9 137
-13 0 -7 -190 -4 -198 3 -2 3 -13 1 -23 -5 -11 -5 -19 -6 -19 -2 0 9 -96 10
-104 2 -3 -3 -36 -3 -73 -2 -75 4 -231 4 -454 2 -81 -1 -152 2 -158 6 -7 4
-17 2 -24 -3 -7 -5 -21 -8 -32 -6 -36 7 -133 6 -144 -1 -6 -3 -11 -3 -11 2 0
4 -38 6 -85 3 -47 -3 -85 -3 -85 0 0 4 -60 4 -67 0 -8 -4 -92 -2 -99 3 -5 2
-22 3 -39 1 -16 -3 -52 -4 -80 -4 -27 1 -57 1 -65 1 -8 0 -87 0 -175 0 -281 0
-359 -1 -413 -3 -30 -2 -56 0 -58 4 -2 3 -17 3 -32 0 -29 -8 -244 -8 -258 0
-5 3 -36 2 -69 -1 -33 -3 -86 -4 -118 -1 -32 3 -60 3 -63 -1 -2 -4 -14 -6 -25
-4 -12 2 -56 4 -98 4 -42 1 -95 1 -118 1 -23 1 -44 -4 -48 -10 -3 -5 -24 -10
-46 -10 -59 0 -45 -23 16 -27 31 -2 51 1 57 9 4 7 8 8 8 3 0 -13 709 -14 729
-1 10 6 12 6 7 -3 -6 -9 8 -11 53 -7 34 2 64 0 67 -6 3 -5 11 -5 17 0 7 5 354
8 777 7 546 -2 769 1 779 9 11 8 13 8 7 -1 -5 -9 0 -13 14 -13 12 0 19 4 16 8
-3 5 1 9 9 9 8 0 15 -4 15 -9 0 -5 10 -4 21 3 12 6 19 7 16 2 -3 -5 147 -9
367 -8 306 0 373 -2 368 -13 -2 -7 -11 -11 -18 -8 -8 3 -14 1 -14 -5 0 -6 -7
-9 -15 -5 -8 3 -26 1 -39 -4 -15 -5 -27 -5 -34 2 -7 7 -17 6 -32 -2 -15 -8
-20 -8 -16 -1 4 6 2 11 -3 11 -6 0 -11 -4 -11 -10 0 -5 -8 -6 -17 -3 -10 4
-33 6 -53 5 -88 -4 -190 -3 -199 2 -5 4 -12 2 -16 -4 -4 -7 -12 -7 -25 0 -11
6 -28 6 -42 1 -12 -4 -35 -5 -49 -1 -15 4 -31 5 -37 1 -11 -7 -250 -6 -257 1
-6 5 -326 -1 -342 -7 -7 -2 -13 -1 -13 3 0 4 -11 7 -25 7 -14 0 -25 -3 -25 -6
0 -3 -21 -3 -46 1 -25 4 -63 4 -84 0 -24 -4 -43 -3 -49 3 -8 8 -14 8 -21 1 -7
-7 -29 -8 -63 -3 -28 5 -54 5 -57 1 -7 -10 -140 -9 -140 1 0 4 -6 5 -12 0 -17
-10 -77 -11 -103 -2 -11 3 -30 3 -42 -2 -12 -4 -24 -5 -27 -1 -5 8 -136 5
-144 -3 -3 -2 -13 0 -23 6 -11 5 -19 6 -19 2 0 -4 -18 -8 -40 -8 -22 -1 -40 3
-40 7 0 4 -11 3 -25 -2 -13 -5 -26 -6 -29 -2 -2 4 -31 6 -63 5 -53 -2 -107 -3
-158 -3 -11 0 -36 0 -55 0 -19 0 -59 1 -88 3 -29 2 -55 1 -57 -2 -2 -4 -32 -5
-67 -4 -34 0 -81 2 -103 2 -22 1 -47 1 -55 1 -24 0 -239 -1 -316 -1 -39 0 -75
1 -80 2 -5 1 -30 1 -56 0 -34 -1 -48 -5 -48 -15 0 -22 22 -25 158 -26 823 -3
1596 -1 1685 4 26 2 50 -1 53 -6 3 -4 10 -5 16 -2 9 6 316 7 1098 4 140 0 261
-4 268 -9 9 -5 0 -13 -27 -23 -29 -12 -41 -13 -45 -4 -3 7 -7 8 -13 1 -8 -10
-73 -15 -73 -5 0 5 -150 5 -215 0 -16 -1 -32 -1 -35 0 -16 6 -97 4 -93 -3 3
-5 -4 -4 -14 2 -11 6 -22 8 -25 6 -4 -5 -152 -7 -328 -6 -41 0 -95 0 -120 -1
-25 0 -80 1 -123 2 -42 2 -80 0 -83 -3 -3 -3 -18 -2 -32 2 -15 5 -36 5 -47 1
-12 -4 -23 -3 -27 4 -5 6 -8 7 -8 1 0 -9 -125 -10 -345 -5 -22 1 -55 0 -73 -3
-18 -2 -35 0 -37 3 -2 3 -48 5 -102 3 -54 -1 -128 -2 -165 -2 -38 0 -76 0 -85
-1 -10 0 -36 0 -58 1 -262 4 -462 3 -459 -3 3 -4 -1 -5 -8 -3 -24 10 -128 11
-128 2 0 -5 -8 -6 -17 -3 -10 3 -45 5 -78 6 -68 0 -109 1 -145 4 -14 1 -31 -3
-39 -9 -12 -8 -13 -7 -6 4 6 11 3 13 -16 7 -13 -4 -28 -7 -34 -7 -81 4 -103 3
-113 -3 -7 -4 -18 -4 -24 1 -25 15 -38 11 -38 -11 l0 -22 1598 1 c997 0 1600
-3 1604 -9 17 -25 -45 -35 -210 -33 -92 1 -181 0 -198 -3 -16 -4 -44 -3 -61 1
-19 4 -33 3 -33 -3 0 -5 -5 -6 -11 -3 -15 10 -409 11 -409 2 0 -4 -9 -3 -21 3
-14 8 -24 8 -33 1 -9 -7 -16 -7 -23 0 -8 8 -17 7 -33 -1 -12 -7 -25 -8 -29 -4
-7 11 -511 12 -511 2 0 -4 -10 -4 -22 0 -13 4 -41 6 -63 5 -22 -1 -60 -2 -85
-2 -188 2 -311 0 -319 -5 -5 -4 -12 -2 -16 4 -4 6 -10 8 -14 6 -4 -3 -29 -5
-57 -5 -27 0 -85 -1 -128 -1 -44 0 -83 -3 -88 -6 -4 -3 -8 0 -8 6 0 6 -5 8
-12 4 -6 -4 -39 -6 -72 -4 -116 7 -151 6 -163 -3 -7 -5 -13 -6 -13 -1 0 5 -24
8 -52 7 -29 -2 -78 -2 -108 -1 -30 0 -68 0 -85 -1 -52 -4 -68 -4 -138 1 -37 3
-70 1 -73 -3 -2 -4 -17 -4 -33 1 -32 9 -81 2 -81 -12 0 -5 5 -6 10 -3 6 3 10
0 10 -7 0 -11 211 -13 1163 -12 640 0 1169 4 1175 8 7 4 12 3 12 -2 0 -6 14
-7 34 -2 19 4 40 4 47 0 7 -5 17 -6 23 -4 21 7 86 11 86 5 0 -8 559 -4 588 4
16 6 22 3 22 -9 0 -9 5 -16 10 -16 6 0 6 -7 -1 -18 -9 -15 -8 -39 6 -108 22
-115 23 -130 7 -126 -8 1 -11 -2 -7 -8 3 -5 -3 -10 -14 -10 -21 0 -37 21 -45
61 -2 13 -9 35 -14 49 -27 65 -6 -360 29 -589 11 -73 18 -135 16 -138 -10 -9
-50 273 -66 462 l-10 110 5 -130 c3 -71 12 -179 20 -239 16 -121 16 -132 9
-124 -9 8 -35 218 -45 353 l-9 130 4 -140 c2 -77 13 -204 25 -283 12 -79 20
-151 18 -160 -4 -17 -42 228 -57 368 -7 59 -9 65 -10 30 0 -25 6 -100 14 -165
9 -66 18 -142 20 -170 4 -44 3 -41 -10 18 -18 88 -34 228 -44 387 -8 118 -8
120 -9 40 -2 -92 18 -301 43 -454 16 -103 18 -122 10 -114 -3 3 -17 79 -31
169 -19 119 -27 219 -31 364 l-5 200 31 20 c17 11 31 23 31 28 0 17 19 5 23
-15 4 -23 12 65 8 92 -1 8 -3 31 -4 50 l-2 35 -1520 -2 c-836 -1 -1530 -2
-1542 -2 -13 -1 -23 -7 -23 -15 0 -10 32 -13 153 -15 83 -1 157 -2 162 -2 6 0
83 1 173 3 90 2 166 0 168 -4 3 -4 11 -5 18 -2 23 9 226 10 226 1 0 -5 4 -6 9
-2 15 9 105 10 119 2 6 -5 12 -5 12 0 0 4 48 7 108 6 135 -3 128 -3 249 0 59
1 99 -2 95 -7 -3 -6 3 -6 14 -1 10 4 30 7 44 7 14 -1 63 -1 110 -1 130 1 448
0 550 0 14 0 52 0 85 0 71 1 108 1 193 -3 35 -2 66 0 68 4 2 3 21 4 42 2 42
-6 114 -5 120 1 2 2 15 0 29 -6 16 -6 22 -6 18 1 -7 11 8 14 18 4 8 -8 106
-11 101 -3 -2 4 10 6 26 5 17 0 30 -4 30 -8 0 -3 13 -3 30 2 20 6 32 5 36 -3
4 -7 3 -9 -1 -4 -5 4 -15 1 -24 -7 -9 -7 -30 -18 -46 -23 -20 -7 -315 -11
-830 -11 -440 0 -804 -1 -810 -2 -5 -2 -14 -2 -19 -1 -5 1 -43 1 -85 1 -42 -1
-83 -1 -91 -1 -8 0 -259 2 -558 3 l-542 3 0 -25 c0 -14 4 -20 8 -14 10 14
2861 14 2856 -1 -3 -6 -21 -18 -42 -27 -32 -14 -93 -16 -472 -16 -239 0 -480
-1 -535 -1 -55 -1 -423 -1 -817 0 -534 1 -718 4 -718 13 0 8 -2 8 -8 -1 -5 -8
-49 -13 -140 -14 -73 0 -132 -5 -132 -10 0 -10 -8 -10 655 -9 264 0 489 0 500
0 11 0 82 -1 157 -3 76 -1 138 2 138 6 0 5 5 5 11 1 6 -4 297 -6 646 -6 349 0
632 -3 628 -6 -4 -4 -10 -7 -13 -8 -4 0 -32 -9 -62 -19 -51 -17 -103 -19 -794
-20 -551 -1 -741 -5 -744 -14 -3 -8 108 -11 445 -9 247 1 454 -1 461 -6 6 -4
12 -4 12 1 0 9 439 7 448 -2 3 -3 -2 -6 -11 -6 -24 -2 -28 -3 -72 -16 -106
-31 -119 -33 -127 -20 -6 9 -8 9 -8 0 0 -7 -7 -13 -15 -13 -8 0 -15 -4 -15 -9
0 -4 -30 -18 -67 -29 -113 -35 -154 -44 -171 -37 -9 3 -13 3 -9 -1 9 -9 -23
-33 -45 -34 -10 0 -18 -4 -18 -8 0 -4 -12 -9 -26 -10 -23 -2 -109 -32 -189
-68 -56 -24 -126 -44 -136 -39 -5 4 -9 2 -9 -2 0 -10 -27 -21 -145 -63 -120
-42 -267 -99 -295 -114 -14 -7 -54 -23 -90 -35 -36 -12 -103 -38 -150 -57
-151 -63 -274 -116 -305 -131 -90 -44 -248 -90 -400 -118 -49 -9 -111 -24
-137 -32 l-48 -15 0 -674 0 -674 1064 0 c746 0 1067 3 1071 11 4 6 13 8 21 5
9 -3 11 0 7 11 -4 10 -2 14 5 9 6 -3 13 -2 17 4 3 6 -1 13 -9 16 -28 11 -17
20 24 22 22 2 40 -1 40 -7 0 -5 7 -11 15 -15 13 -5 14 -2 4 17 -10 20 -10 21
5 6 9 -9 18 -25 19 -37 0 -11 4 -19 8 -16 4 2 9 -3 13 -11 4 -13 39 -15 225
-15 136 0 222 4 226 10 3 6 17 10 30 10 19 0 23 5 20 25 -1 14 -6 29 -10 33
-5 4 -5 -2 -1 -12 5 -16 4 -17 -8 -7 -8 7 -14 21 -13 32 1 20 17 27 17 7 0 -7
5 -6 13 4 6 9 19 18 27 21 11 4 11 6 -3 6 -11 1 -28 11 -39 24 -17 19 -19 19
-14 3 6 -16 4 -17 -9 -6 -20 17 -4 29 36 26 15 -1 26 2 23 6 -3 4 5 9 18 9 20
1 21 2 3 6 -11 3 -24 10 -28 17 -6 6 -6 3 -3 -9 5 -17 4 -18 -6 -5 -25 30 -64
-2 -59 -48 1 -6 -2 -19 -7 -27 -13 -24 -62 25 -62 61 0 26 1 27 14 9 8 -11 12
-23 9 -28 -6 -10 16 -37 30 -37 5 0 2 9 -8 19 -16 19 -16 21 10 45 15 14 24
30 20 35 -3 6 -1 11 5 11 6 0 9 4 5 9 -3 5 4 12 15 16 11 4 18 10 15 15 -3 5
1 11 7 14 7 3 2 5 -12 4 -14 -2 -30 1 -35 4 -15 9 -32 -3 -37 -27 -2 -12 2
-19 10 -17 15 3 16 -20 0 -36 -16 -16 -29 -15 -22 2 4 11 0 13 -16 9 -13 -4
-26 0 -31 8 -13 20 -11 31 4 23 6 -4 2 4 -11 18 -13 14 -24 37 -26 51 -1 14
-8 33 -15 41 -11 13 -11 17 2 22 9 3 13 12 10 20 -3 8 0 14 7 14 6 0 9 4 5 9
-3 5 0 13 6 17 8 4 9 3 5 -4 -4 -7 -2 -12 5 -12 6 0 9 -8 6 -19 -3 -13 0 -18
12 -16 26 4 55 -15 42 -28 -14 -14 -14 -27 0 -27 7 0 17 -7 24 -16 10 -14 15
-15 31 -5 17 11 17 11 -6 6 -19 -5 -21 -4 -10 4 12 8 9 16 -20 46 -23 24 -28
34 -16 29 15 -6 17 -4 11 6 -6 10 -4 12 7 7 12 -4 14 -1 11 14 -3 11 -8 17
-11 14 -3 -2 -12 1 -20 8 -13 10 -14 9 -8 -2 7 -10 3 -12 -15 -6 -13 4 -28 12
-34 18 -7 7 -6 8 1 4 7 -4 15 0 18 9 5 13 9 14 21 4 13 -11 14 -10 8 6 -6 17
-5 17 10 5 29 -23 18 -6 -15 25 -18 16 -26 21 -19 12 7 -10 9 -18 3 -18 -12 0
-26 18 -36 44 -5 14 -2 17 9 12 13 -5 12 -1 -2 18 -10 13 -23 22 -29 19 -7 -2
-15 0 -19 6 -3 6 -1 11 5 11 6 0 9 4 5 9 -3 5 -1 13 5 16 8 5 8 11 0 20 -8 9
-6 15 7 20 31 14 43 14 43 -1 0 -7 12 -17 28 -20 31 -7 92 -62 125 -114 105
-158 129 -203 134 -241 5 -33 12 -45 37 -60 46 -27 142 -157 133 -181 -2 -7
-8 0 -12 15 -7 26 -8 26 -21 10 -7 -10 -14 -26 -14 -35 0 -10 -4 -18 -10 -18
-5 0 -10 -7 -10 -16 0 -12 8 -14 33 -10 30 4 31 4 13 -10 -17 -12 37 -14 435
-14 367 1 459 3 479 15 18 10 29 10 38 3 18 -15 34 3 21 22 -9 13 -10 12 -5
-2 3 -10 1 -18 -4 -18 -6 0 -10 5 -10 11 0 6 -7 8 -15 5 -41 -16 -47 -15 -15
3 19 11 30 20 23 21 -6 0 -19 3 -29 7 -13 5 -15 3 -9 -8 5 -8 -1 -6 -13 4 -11
11 -25 16 -31 12 -6 -3 -18 -2 -28 3 -14 9 -14 11 6 22 13 6 25 9 29 6 3 -3 0
-6 -6 -6 -7 0 -12 -4 -12 -10 0 -5 7 -7 15 -4 8 4 15 14 15 23 0 12 2 13 9 3
7 -11 10 -10 15 3 8 22 8 22 -10 29 -8 3 -13 2 -10 -3 3 -5 -1 -11 -9 -14 -8
-4 -12 -1 -9 6 5 16 -62 20 -89 5 -15 -8 -18 -7 -14 4 2 7 10 12 17 10 8 -2 9
5 5 19 -6 18 -4 21 9 16 9 -4 22 -4 30 -1 17 7 11 30 -10 38 -9 3 -12 1 -9 -4
9 -15 -6 -12 -26 5 -15 14 -18 14 -32 1 -13 -14 -16 -14 -21 0 -5 14 -9 14
-22 3 -17 -14 -20 -11 -49 43 -8 14 -27 36 -41 47 -15 12 -24 25 -19 29 4 4
10 2 12 -5 5 -13 33 -6 33 8 0 5 -16 7 -35 4 -27 -3 -35 0 -35 11 0 9 5 12 12
8 7 -4 8 -3 4 4 -4 6 -13 9 -20 6 -17 -6 -31 12 -16 21 6 4 23 9 37 11 15 3
30 10 34 16 3 5 9 -1 13 -15 4 -18 12 -25 29 -23 19 1 23 6 20 26 -3 25 -3 25
6 3 13 -29 23 -30 12 -1 -4 12 -16 23 -27 25 -35 7 -39 8 -41 16 -8 21 -1 29
22 25 13 -3 22 -1 19 3 -3 5 1 9 8 9 10 0 10 2 -1 9 -7 5 -10 14 -7 20 5 8 0
8 -19 1 -15 -6 -31 -8 -35 -5 -13 8 0 37 23 54 10 7 16 19 13 27 -3 8 -2 14 2
14 4 0 16 14 27 30 26 39 84 43 108 8 15 -22 16 -22 17 -3 2 42 29 -29 30 -77
0 -40 -3 -46 -16 -41 -14 5 -16 2 -10 -23 4 -16 9 -48 13 -71 4 -33 16 -54 52
-90 26 -27 69 -75 96 -108 28 -33 60 -71 73 -85 12 -14 46 -55 75 -92 l52 -67
250 0 c165 -1 245 3 235 9 -13 9 -13 10 0 11 8 0 22 2 30 4 54 12 70 13 76 4
3 -5 9 -7 14 -4 5 3 11 1 15 -5 4 -6 10 -8 15 -5 5 3 11 1 15 -5 4 -7 261 -10
762 -10 670 0 754 2 749 15 -5 14 -2 13 24 0 17 -9 30 -12 30 -7 0 5 7 9 15 9
8 0 15 -5 15 -11 0 -6 5 -4 10 4 6 10 10 11 10 3 0 -18 1276 -18 1283 0 4 9 6
9 6 0 1 -9 134 -12 556 -13 l555 -1 0 275 c0 151 -4 276 -8 278 -5 2 -23 28
-41 58 -66 112 -129 195 -296 389 -55 64 -111 132 -125 151 -14 19 -41 51 -61
72 -21 21 -39 45 -43 53 -3 8 -20 24 -38 36 -18 12 -60 53 -92 91 -32 37 -64
68 -70 68 -6 0 -16 10 -21 22 -6 12 -34 35 -63 50 -29 15 -50 23 -47 18 9 -15
-5 -12 -21 5 -9 8 -21 15 -27 14 -9 0 -8 -2 1 -6 27 -11 10 -21 -20 -12 -18 6
-43 12 -55 13 -12 2 -35 8 -50 14 -15 6 -64 18 -108 27 -130 26 -259 67 -385
122 -19 9 -42 17 -50 19 -9 2 -49 15 -90 29 -251 87 -313 108 -380 130 -121
38 -300 75 -300 61 0 -2 24 -12 53 -22 28 -9 57 -20 62 -24 21 -16 109 -41
163 -46 63 -6 75 -11 68 -29 -5 -15 30 -33 62 -30 12 1 22 -2 22 -6 0 -5 7 -5
17 -2 9 4 14 2 10 -3 -3 -6 8 -8 28 -6 35 4 111 -16 100 -26 -3 -3 -23 -5 -45
-4 -30 2 -40 -1 -40 -13 0 -8 8 -15 18 -16 66 -3 102 -8 119 -18 13 -6 23 -7
29 -1 10 10 54 -14 54 -28 0 -4 -37 -8 -81 -9 -45 -1 -84 -5 -87 -8 -10 -9 6
-17 35 -17 34 1 105 0 156 -1 20 -1 37 -4 37 -7 0 -4 6 -7 13 -7 6 0 21 -4 31
-9 13 -5 17 -4 13 3 -4 6 10 5 34 -3 22 -8 46 -11 52 -8 7 4 8 3 4 -2 -5 -5
-25 -10 -45 -11 -20 -1 -54 -3 -74 -6 -21 -2 -38 -1 -38 3 0 3 -16 6 -35 6
-19 -1 -35 -4 -35 -8 0 -4 -12 -4 -27 0 -16 4 -50 6 -78 6 -27 -1 -67 -2 -87
-3 -29 -1 -36 -4 -32 -16 4 -8 17 -18 30 -21 27 -7 49 -38 39 -55 -4 -5 -15
-7 -26 -4 -10 4 -19 2 -19 -4 0 -5 17 -11 38 -13 30 -2 38 -7 40 -25 3 -21 0
-23 -40 -20 -34 2 -43 6 -46 22 -9 62 -12 67 -37 61 -18 -5 -25 -1 -30 14 -3
11 -13 20 -20 20 -8 0 -17 5 -21 11 -5 8 1 10 20 7 14 -3 26 -1 26 3 0 5 -9 9
-21 9 -11 0 -27 7 -35 15 -9 8 -21 15 -27 15 -7 0 -6 -4 3 -10 10 -7 -4 -8
-44 -6 -36 3 -65 11 -74 20 -11 11 -12 16 -4 16 7 0 12 -4 12 -10 0 -5 8 -10
18 -10 15 0 15 2 2 11 -11 7 1 9 43 7 31 -2 58 1 60 6 2 5 10 1 19 -8 20 -19
28 -20 28 -3 0 8 12 12 34 11 32 -2 107 11 96 16 -3 1 -30 3 -61 5 -31 1 -61
5 -67 9 -7 4 -12 4 -12 -1 0 -4 -11 -8 -25 -8 -14 0 -25 2 -25 5 0 7 -59 4
-67 -3 -3 -4 -11 -7 -17 -7 -6 0 -4 5 4 10 20 13 -1 13 -35 0 -19 -7 -24 -7
-19 2 5 7 2 9 -9 5 -9 -3 -18 -1 -21 6 -3 8 -7 9 -13 2 -4 -5 -17 -9 -28 -9
-11 1 -26 2 -33 3 -7 1 -10 6 -6 13 5 7 3 8 -7 2 -23 -14 -279 -15 -279 -1 0
8 -4 7 -9 -2 -10 -15 -81 -22 -81 -8 0 5 -4 6 -9 3 -5 -3 -12 1 -15 10 -8 21
-8 21 10 28 8 3 12 2 9 -4 -3 -6 -1 -10 4 -10 6 0 11 7 11 16 0 12 4 14 13 7
6 -5 38 -10 70 -10 31 -1 68 -4 82 -7 14 -4 25 -3 25 1 0 5 14 8 30 8 17 0 30
-2 30 -5 0 -3 9 -6 20 -6 11 0 20 4 20 9 0 5 8 6 17 3 9 -4 20 -1 25 6 6 10
10 10 18 -2 8 -13 10 -12 10 4 0 14 -5 17 -25 12 -15 -4 -25 -2 -25 4 0 6 -5
8 -11 4 -18 -11 -69 -13 -69 -2 0 5 -5 6 -11 2 -18 -11 -98 -11 -103 1 -2 5
-5 4 -5 -3 -1 -7 -5 -11 -10 -7 -6 3 -53 7 -105 9 -67 2 -102 8 -118 19 l-23
16 22 0 c12 1 25 5 28 11 4 6 -1 7 -12 4 -17 -5 -17 -5 0 9 17 14 17 15 -5 14
-13 -1 -32 2 -44 6 -17 6 -24 0 -43 -44 -13 -28 -48 -74 -79 -105 -31 -30 -57
-63 -57 -72 0 -9 -9 -18 -20 -20 -16 -3 -17 -1 -5 7 28 19 -2 11 -56 -15 -29
-14 -58 -26 -66 -28 -7 -1 -17 -4 -23 -8 -18 -10 -129 -35 -170 -37 -22 -1
-43 -7 -47 -14 -6 -9 -8 -8 -8 3 0 11 -2 12 -8 2 -5 -7 -19 -14 -32 -17 -12
-2 -25 -7 -29 -11 -3 -4 2 -4 11 -1 10 3 20 2 23 -3 3 -5 12 -7 20 -3 17 6 45
-13 45 -31 0 -6 -5 -4 -10 4 -9 13 -10 13 -10 0 0 -13 -1 -13 -10 0 -7 12 -10
8 -10 -15 0 -23 3 -27 10 -15 9 13 10 13 10 0 0 -13 1 -13 10 0 5 8 10 11 10
5 0 -5 5 -3 10 5 7 11 10 11 10 2 0 -7 5 -10 10 -7 6 3 10 1 10 -5 0 -7 7 -10
15 -6 8 3 15 1 15 -4 0 -6 9 -10 20 -10 12 0 20 -7 20 -16 0 -11 -6 -15 -20
-11 -10 3 -21 0 -24 -7 -3 -8 -5 -7 -5 1 -1 7 -8 10 -17 6 -9 -3 -20 0 -25 8
-6 10 -9 7 -9 -12 0 -23 4 -26 30 -24 17 1 33 -2 36 -7 3 -5 13 -6 22 -4 10 3
23 2 31 -3 12 -8 12 -11 -1 -25 -9 -8 -18 -12 -22 -9 -3 4 -6 0 -6 -7 0 -9 -6
-8 -20 5 -19 17 -20 17 -20 -1 0 -11 -3 -15 -8 -9 -4 6 -14 11 -22 11 -28 1
-70 16 -70 25 0 5 -3 8 -7 7 -5 -2 -8 2 -8 7 0 6 3 9 8 7 4 -1 7 5 7 13 0 9
-6 12 -15 9 -10 -4 -15 0 -16 12 0 18 -1 17 -9 -1 l-9 -20 -1 20 -1 20 -9 -20
-9 -20 0 20 c-1 16 -3 17 -10 6 -5 -8 -18 -12 -29 -8 -12 2 -23 0 -26 -7 -2
-6 -5 5 -5 24 -1 26 2 31 9 20 5 -8 10 -10 10 -3 0 12 17 12 38 0 7 -5 12 -3
12 5 0 9 3 9 10 -2 8 -12 10 -10 10 11 0 33 -8 41 -31 28 -15 -7 -19 -6 -19 5
0 8 5 16 12 18 9 3 9 6 0 12 -8 4 -16 -1 -21 -16 -7 -17 -10 -19 -10 -5 -1 15
-8 16 -58 11 -67 -7 -404 -13 -415 -7 -4 2 -42 6 -83 7 -44 2 -82 9 -92 17
-12 10 -15 10 -9 2 4 -7 2 -13 -3 -13 -6 0 -11 5 -11 10 0 6 -5 10 -11 10 -5
0 -7 -4 -4 -10 3 -5 1 -10 -4 -10 -15 0 -14 27 2 33 6 3 2 4 -9 4 -14 -1 -20
-6 -17 -14 3 -7 0 -13 -6 -13 -7 0 -14 7 -17 15 -4 8 -10 12 -15 9 -5 -3 -7
-10 -4 -15 4 -5 1 -9 -4 -9 -6 0 -11 5 -11 11 0 5 -4 8 -9 5 -5 -3 -14 0 -20
7 -6 8 -23 12 -42 9 -24 -3 -30 -1 -24 8 5 9 3 10 -11 3 -11 -5 -25 -8 -31 -7
-7 1 -20 2 -29 3 -9 1 -12 6 -8 14 5 8 2 8 -9 -2 -20 -16 -23 -2 -4 18 10 11
9 12 -2 6 -11 -6 -13 -4 -8 9 4 10 3 15 -3 11 -6 -3 -10 -2 -10 4 0 5 3 11 8
14 4 2 2 2 -5 1 -6 -2 -14 0 -16 4 -2 4 -2 2 -1 -5 5 -20 -14 -25 -20 -5 -6
19 -36 26 -36 9 0 -5 -8 -3 -17 4 -14 12 -16 12 -8 0 5 -10 4 -12 -4 -7 -6 4
-19 2 -27 -5 -12 -10 -13 -9 -9 3 5 11 0 15 -17 13 -13 -1 -23 -3 -23 -5 0 -1
-10 -3 -22 -4 -26 -3 -31 9 -8 18 8 3 15 0 15 -6 0 -6 3 -9 6 -5 14 14 -8 27
-27 16 -18 -9 -20 -8 -17 8 3 14 11 17 33 15 17 -2 35 -8 41 -13 6 -5 20 -6
29 -2 14 5 16 3 10 -8 -7 -11 -6 -12 7 -2 8 7 17 11 19 9 2 -3 24 -7 49 -10
63 -8 92 -14 99 -22 3 -4 -2 -4 -11 -1 -12 4 -18 1 -18 -8 0 -8 9 -13 20 -12
11 1 20 7 20 14 0 7 5 13 11 13 5 0 7 -6 3 -12 -5 -9 -2 -9 9 1 14 11 21 11
42 -3 28 -18 39 -21 30 -6 -3 6 1 10 10 10 9 0 14 -3 12 -7 -3 -5 12 -7 34 -7
21 1 39 -3 39 -8 0 -7 4 -7 13 -1 6 5 28 8 47 6 107 -10 184 -13 355 -16 105
-1 210 1 235 5 25 3 65 9 90 13 25 4 59 11 75 15 17 5 46 11 65 14 19 3 89 19
155 36 66 16 122 30 124 30 2 0 0 11 -3 25 -9 37 -1 44 39 35 20 -4 35 -4 35
1 0 5 -7 9 -15 9 -8 0 -15 5 -15 10 0 6 -5 10 -11 10 -5 0 -7 -5 -4 -11 4 -6
-2 -5 -14 3 -25 15 -27 33 -5 42 28 11 37 7 23 -11 -13 -17 -13 -17 7 0 11 9
27 17 35 17 11 1 11 3 -2 13 -9 7 -16 16 -17 20 -1 18 -12 19 -13 1 0 -10 -3
-13 -6 -6 -2 6 -12 12 -21 13 -11 0 -12 2 -4 6 6 2 10 9 7 13 -3 5 0 12 6 16
7 4 9 3 6 -3 -4 -5 7 -10 23 -10 17 0 30 4 30 9 0 4 11 8 25 8 14 0 25 5 25
10 0 6 -5 10 -11 10 -5 0 -7 5 -3 12 5 7 2 9 -8 6 -22 -9 -39 5 -28 22 7 11
10 11 10 2 0 -9 8 -9 31 3 17 9 37 14 44 11 15 -5 39 17 28 27 -3 4 -13 1 -21
-6 -13 -10 -15 -9 -9 6 5 14 2 16 -21 12 -25 -5 -25 -4 5 10 17 8 34 19 38 25
3 5 14 10 24 10 10 0 18 6 18 13 0 8 -14 12 -40 12 l-39 -1 36 29 c21 17 33
34 29 42 -3 8 -10 12 -16 8 -7 -4 -8 0 -4 11 4 10 7 22 7 27 0 5 10 9 23 9 13
0 28 5 35 12 8 8 12 8 12 1 0 -8 164 -11 578 -11 317 0 582 -1 587 -2 6 -1 15
-2 20 0 6 1 367 2 803 2 537 0 792 3 790 10 -4 11 -398 15 -416 4 -5 -3 -12
-3 -15 0 -10 10 -107 12 -107 2 0 -5 -5 -6 -10 -3 -14 9 -394 10 -408 1 -7 -4
-12 -4 -12 1 0 7 -588 9 -855 3 -44 -1 -84 -1 -90 0 -5 1 -202 2 -437 2 -237
0 -428 5 -428 9 0 5 -8 4 -19 -2 -14 -10 -26 -8 -57 7 -21 10 -37 24 -34 29 3
6 227 11 635 12 347 1 635 2 640 3 6 1 42 1 80 0 39 -1 288 -2 555 -1 267 0
528 0 580 0 52 0 163 -1 245 -2 104 -1 154 2 163 10 6 6 12 13 12 15 0 2 -667
2 -1482 2 -841 -1 -1486 2 -1492 7 -6 5 -22 17 -35 27 -22 17 -5 18 480 16
277 -1 506 -2 509 -4 3 -1 10 -1 15 1 27 7 655 4 655 -4 0 -5 6 -5 13 2 14 11
238 8 257 -4 5 -3 10 -2 10 2 0 12 571 10 589 -1 8 -5 12 -5 9 0 -4 5 88 9
220 9 210 0 252 5 252 27 0 2 -318 2 -708 1 -389 -1 -732 -2 -762 -2 -30 0
-61 0 -67 0 -25 -2 -41 -2 -268 2 -149 2 -235 -1 -244 -8 -9 -6 -13 -6 -9 0 4
7 -161 10 -488 10 l-494 0 -1 -55 c-1 -30 0 -63 1 -73 1 -10 -4 -24 -10 -32
-7 -9 -8 -15 0 -20 12 -8 14 -45 1 -45 -5 0 -12 12 -16 27 -10 41 -25 56 -41
42 -16 -13 -19 -75 -4 -84 15 -9 12 -31 -6 -49 -14 -15 -14 -16 3 -17 15 0 14
-2 -4 -9 -14 -6 -23 -18 -23 -31 0 -15 -4 -19 -16 -15 -8 3 -13 2 -10 -2 3 -5
-14 -9 -38 -9 -40 -1 -43 1 -38 24 3 18 7 21 13 11 15 -22 10 -3 -7 32 -18 35
-33 85 -41 138 -5 29 -3 33 26 38 17 4 36 13 42 20 20 24 50 16 62 -16 6 -16
17 -30 25 -30 8 0 3 18 -17 57 l-30 56 87 44 87 44 158 2 c86 1 157 -2 157 -7
0 -5 7 -3 15 4 8 6 18 9 23 6 8 -5 544 -10 577 -6 10 2 245 2 380 1 39 -1 131
0 205 2 74 1 143 -1 153 -6 9 -4 17 -4 17 0 0 4 24 7 52 5 29 -1 71 -2 93 -1
22 0 58 0 80 0 121 0 225 1 260 3 22 1 55 -1 73 -5 17 -4 32 -4 32 0 0 3 105
6 234 6 129 0 233 -2 231 -5 -2 -3 13 -4 33 -3 40 1 145 3 177 2 11 0 21 5 23
11 2 5 8 7 14 4 6 -4 9 -1 6 6 -3 10 -309 12 -1468 12 -805 0 -1470 3 -1478 5
-10 4 -9 9 4 24 14 15 28 18 76 16 33 -2 61 0 64 5 3 5 10 6 15 2 5 -3 323 -5
707 -5 383 1 708 1 722 0 14 0 63 -1 110 0 47 0 103 0 125 0 442 0 1103 1
1113 3 6 1 12 12 12 26 0 18 -3 22 -12 14 -8 -5 -77 -9 -166 -8 -83 0 -152 -1
-152 -4 0 -3 -35 -4 -77 -3 -96 3 -119 3 -163 3 -19 0 -102 0 -184 0 -81 0
-152 -3 -157 -6 -5 -3 -9 -2 -9 3 0 10 -192 9 -209 -1 -6 -4 -11 -4 -11 1 0 4
-24 7 -52 5 -29 -1 -82 -2 -118 -2 -366 5 -508 5 -524 -3 -13 -7 -16 -6 -11 3
6 9 2 9 -14 1 -15 -8 -21 -8 -21 -1 0 7 -6 8 -17 1 -10 -5 -26 -5 -40 0 -14 5
-23 5 -23 -1 0 -6 -12 -8 -27 -5 -23 4 -562 8 -658 4 -16 -1 -32 0 -35 1 -21
8 -90 5 -90 -3 0 -8 -3 -8 -10 -1 -6 6 -31 9 -56 7 -60 -6 -78 1 -65 25 8 16
21 18 93 15 46 -1 88 -2 93 -2 6 0 609 1 1340 2 732 2 1340 6 1353 11 41 14
23 24 -42 22 -35 -1 -63 1 -61 4 2 3 -39 5 -91 5 -52 0 -94 -2 -94 -5 0 -3
-24 -4 -52 -3 -29 0 -53 2 -53 3 0 6 -87 5 -91 -1 -2 -4 -23 -3 -46 2 -23 6
-53 6 -67 2 -14 -5 -49 -6 -78 -3 -28 3 -50 3 -48 -1 5 -7 -56 -5 -70 2 -5 4
-26 5 -45 2 -59 -6 -181 -5 -187 1 -3 3 -12 1 -20 -5 -8 -7 -13 -8 -13 -1 0 5
-8 9 -17 7 -49 -10 -93 -13 -89 -7 2 4 -22 8 -54 7 -32 0 -56 -3 -54 -7 2 -3
-4 -4 -13 -2 -42 9 -123 10 -123 1 0 -5 -7 -4 -15 3 -12 10 -15 10 -15 -1 0
-9 -3 -10 -8 -4 -8 12 -122 13 -139 2 -7 -5 -18 -5 -25 -1 -14 9 -138 11 -138
3 0 -3 -19 -4 -42 -2 -41 3 -175 4 -208 2 -14 -1 -78 0 -170 1 -48 1 -202 -1
-272 -3 -32 -1 -58 0 -58 3 0 6 -49 5 -60 0 -3 -1 -16 -1 -30 0 -61 6 -200 4
-200 -2 0 -14 -55 10 -58 25 -4 21 -49 18 378 18 118 0 222 0 230 0 8 0 65 0
125 0 61 0 334 0 607 0 274 0 502 -2 508 -6 5 -3 10 -3 10 2 0 4 223 7 495 6
328 -1 495 1 495 8 0 6 5 7 10 4 6 -3 10 3 10 14 0 12 -7 21 -15 21 -8 0 -15
-3 -15 -7 0 -5 -33 -7 -72 -5 -192 7 -238 6 -238 -1 0 -5 -5 -5 -10 -2 -17 10
-102 16 -95 6 3 -5 -7 -7 -22 -5 -28 5 -61 5 -115 0 -16 -1 -28 0 -28 3 0 3
-16 6 -35 6 -19 0 -35 -3 -35 -6 0 -4 -16 -3 -35 1 -19 4 -35 5 -35 1 0 -4
-30 -6 -67 -4 -66 3 -79 4 -105 2 -7 0 -37 2 -66 4 -29 2 -70 1 -92 -3 -22 -4
-42 -5 -44 -2 -8 8 -86 11 -86 3 0 -9 -71 -7 -87 2 -7 5 -20 4 -28 -1 -9 -4
-38 -5 -65 -2 -32 4 -51 2 -54 -4 -3 -6 -5 -5 -5 2 -1 7 -6 10 -12 6 -15 -9
-87 -11 -126 -3 -18 4 -34 2 -35 -3 -2 -6 -19 -6 -46 0 -23 6 -42 7 -42 3 0
-6 -128 -5 -270 2 -25 1 -57 -1 -73 -5 -18 -4 -25 -3 -21 4 4 6 -3 5 -16 -2
-18 -9 -24 -9 -30 0 -5 7 -13 9 -21 4 -19 -11 -61 -12 -83 -1 -12 6 -16 6 -12
-1 4 -6 -6 -7 -27 -2 -18 4 -43 3 -55 -1 -12 -5 -22 -5 -22 0 0 9 -66 8 -76
-2 -4 -3 -14 -2 -24 3 -10 5 -20 6 -24 3 -8 -9 -118 -10 -189 -3 -33 4 -79 4
-103 0 -29 -5 -44 -3 -44 4 0 7 -3 7 -8 1 -4 -5 -17 -10 -29 -11 -20 0 -22 6
-29 78 -4 43 -11 81 -15 84 -5 3 -9 -4 -9 -15 0 -28 -46 -140 -70 -171 l-19
-25 -23 21 c-13 11 -41 32 -63 47 -107 74 -123 87 -128 117 -5 24 -12 30 -32
30 -18 0 -25 5 -25 19 0 24 16 36 26 20 10 -17 23 9 18 37 -4 19 1 25 23 29
16 4 36 10 45 15 10 6 24 7 33 4 8 -3 15 -1 15 5 0 6 -9 11 -19 11 -10 0 -21
7 -25 15 -8 21 21 45 54 45 32 0 52 19 23 22 -26 2 -36 4 -57 13 -12 5 -21 3
-27 -6 -7 -11 -9 -11 -9 -1 0 7 -4 10 -10 7 -14 -9 -13 28 2 43 8 8 17 8 30 1
14 -7 23 -7 34 2 8 6 14 7 14 2 0 -10 85 -1 97 10 3 4 -14 7 -38 8 -84 2 -94
4 -94 19 0 17 71 38 142 42 24 2 43 6 43 11 0 4 4 7 10 7 5 0 7 -24 5 -55 -2
-31 0 -55 6 -55 5 0 9 5 9 11 0 5 12 27 26 47 l26 37 -6 -37 c-8 -47 4 -131
15 -103 4 11 8 41 8 66 1 66 11 107 27 113 20 8 26 -10 9 -28 -10 -9 -11 -17
-5 -21 6 -4 8 -11 5 -16 -4 -5 10 -9 30 -9 20 0 34 -4 30 -9 -3 -5 -17 -7 -32
-5 -29 5 -43 -8 -43 -43 0 -19 4 -21 23 -15 19 6 45 7 81 3 5 -1 3 -7 -3 -14
-6 -9 -29 -13 -60 -12 -42 1 -50 -1 -55 -19 -3 -11 -1 -25 4 -30 9 -9 123 -12
138 -2 5 3 23 1 40 -3 22 -7 32 -6 36 2 3 8 8 7 15 -3 6 -9 11 -10 11 -3 0 12
17 12 37 0 6 -4 14 -4 17 1 7 12 114 13 121 2 4 -6 12 -10 18 -10 8 0 7 3 -2
9 -9 6 -3 8 18 6 18 -1 37 -7 44 -14 13 -13 41 -12 -260 -13 -200 0 -243 -3
-244 -14 -1 -18 -1 -90 0 -106 1 -10 32 -12 128 -11 137 2 174 3 353 1 63 0
183 0 265 1 83 0 348 1 590 1 242 0 447 0 455 0 8 0 161 0 340 0 179 0 345 0
370 0 25 0 60 -2 78 -4 18 -3 32 -1 32 5 0 6 5 7 11 3 17 -10 184 -5 187 6 2
6 8 8 13 4 5 -3 9 4 9 16 0 20 -4 21 -75 18 -41 -2 -75 1 -75 5 0 5 -4 6 -9 3
-5 -4 -12 0 -14 6 -4 8 -6 7 -6 -4 -1 -14 -8 -16 -38 -11 -46 7 -44 5 -33 23
8 13 13 13 31 2 15 -10 24 -11 32 -3 15 15 47 14 47 -1 0 -9 3 -9 9 1 5 8 18
12 30 8 11 -3 36 -1 55 3 24 5 37 4 40 -4 2 -6 5 24 5 67 1 58 -2 76 -11 71
-6 -4 -109 -6 -227 -5 -119 1 -220 2 -226 2 -45 -2 -952 -3 -960 -1 -5 1 -12
2 -15 1 -3 -1 -38 -3 -77 -4 -54 -2 -74 1 -78 11 -8 21 -6 23 13 14 19 -9 263
-9 279 1 6 4 13 3 17 0 9 -9 127 -12 121 -3 -2 4 2 7 10 7 8 0 15 -3 15 -6 0
-9 344 -6 358 3 7 4 12 4 12 -1 0 -4 52 -8 115 -8 63 0 115 3 115 7 0 4 6 5
13 3 24 -10 112 -12 129 -3 10 5 19 4 23 -2 5 -8 11 -7 21 1 8 6 14 7 14 2 0
-12 42 -14 56 -2 7 6 15 6 18 1 8 -13 240 -6 244 7 2 6 8 9 13 5 5 -3 9 41 9
106 0 72 -4 109 -10 105 -5 -3 -10 -1 -10 4 0 6 5 11 10 11 7 0 10 933 10
2780 l0 2780 -4475 0 -4475 0 0 -2898z m4650 2488 c0 -5 6 -10 14 -10 8 0 17
-8 21 -17 6 -15 9 -14 22 10 19 36 27 29 12 -9 -15 -37 -13 -53 14 -83 12 -13
16 -21 10 -17 -18 10 -16 -2 2 -20 13 -14 16 -14 21 1 4 9 2 21 -5 28 -13 13
-15 27 -3 27 5 0 16 -19 26 -41 14 -30 21 -38 27 -28 6 11 9 9 9 -7 0 -27 47
-75 66 -67 8 3 14 10 14 15 0 6 6 6 14 -1 11 -9 16 -9 21 0 6 8 11 6 18 -6 8
-14 11 -15 18 -4 6 10 9 10 9 2 0 -7 7 -10 15 -7 10 4 15 20 15 46 0 23 4 37
10 33 6 -3 10 -21 10 -39 0 -26 5 -35 21 -39 19 -5 21 -11 15 -41 -5 -24 -3
-36 5 -36 6 0 9 7 6 15 -4 8 -2 17 3 20 6 4 10 0 10 -8 0 -8 6 -20 14 -26 11
-9 16 -5 26 19 7 16 16 27 21 24 17 -10 9 19 -22 75 -17 31 -24 47 -15 36 8
-11 21 -26 28 -34 7 -8 16 -21 19 -30 3 -8 13 -15 22 -17 13 -2 17 5 17 26 0
16 -4 32 -10 35 -5 3 -10 11 -10 18 0 18 29 -27 30 -46 0 -9 11 -23 25 -29 19
-8 25 -19 25 -42 0 -17 7 -39 15 -49 7 -11 11 -25 8 -33 -2 -7 2 -23 11 -36
16 -22 16 -22 16 13 0 19 -6 41 -12 48 -11 11 -10 13 2 9 8 -2 17 -18 21 -34
9 -43 30 -78 67 -109 23 -19 30 -22 25 -9 -4 12 -3 15 5 10 7 -4 12 -24 12
-45 0 -22 6 -44 15 -51 12 -10 15 -10 15 4 0 20 16 21 24 0 3 -8 10 -13 15
-10 5 3 12 -1 15 -10 3 -8 2 -13 -3 -10 -5 3 -11 -4 -14 -15 -3 -12 -3 -18 0
-15 4 3 12 1 20 -5 10 -9 13 -7 13 7 1 16 3 15 14 -5 11 -20 14 -21 19 -6 4 9
8 29 8 43 1 24 2 23 9 -8 5 -19 11 -45 15 -56 5 -17 2 -23 -19 -28 -40 -10
-31 -24 13 -21 29 2 41 -1 43 -12 2 -12 7 -11 26 5 25 22 28 33 10 29 -8 -1
-14 11 -15 33 0 19 1 25 4 13 6 -29 23 -30 23 -2 0 11 5 17 10 14 12 -7 12 -3
4 20 -5 12 -9 13 -14 5 -4 -7 -9 0 -12 18 -2 17 -1 29 2 27 4 -3 16 5 26 16
14 16 15 19 2 14 -13 -5 -18 4 -27 45 -14 64 -14 83 0 75 6 -4 8 -13 5 -21 -3
-7 1 -28 8 -45 13 -30 14 -31 21 -11 3 12 2 37 -3 55 -15 48 -23 105 -13 87 5
-8 12 -33 16 -54 5 -30 9 -36 17 -25 7 10 8 6 5 -16 -3 -16 -1 -39 3 -50 14
-37 23 27 13 94 -6 33 -6 66 -2 72 8 14 12 -6 29 -134 5 -44 8 -83 4 -88 -3
-5 0 -9 7 -9 8 0 10 -16 6 -57 -3 -32 -2 -50 1 -41 17 44 45 -37 42 -122 0
-19 2 -31 6 -28 12 12 36 -21 29 -41 -3 -11 -1 -22 5 -26 7 -4 7 -12 0 -25
-13 -24 -14 -71 -1 -52 6 10 10 8 13 -10 5 -27 -17 -57 -25 -35 -3 7 -5 -6 -6
-28 0 -31 2 -36 9 -20 5 11 9 15 9 8 1 -7 8 -10 16 -7 21 9 19 -2 -7 -26 -12
-11 -18 -23 -15 -27 4 -3 7 -1 7 5 0 7 5 12 10 12 6 0 10 -9 10 -21 0 -15 4
-19 16 -15 13 5 15 1 9 -21 -3 -16 -10 -29 -15 -31 -5 -2 -7 -9 -4 -17 3 -7
-1 -24 -9 -37 -13 -19 -13 -25 -2 -35 17 -16 26 -5 19 23 -4 17 1 30 21 48 23
22 25 27 11 32 -12 5 -13 10 -5 26 6 11 12 33 14 49 2 16 9 37 14 47 9 15 11
14 11 -8 l1 -25 10 24 c5 13 12 57 16 97 3 43 10 71 15 68 6 -4 7 -26 3 -52
-6 -42 -6 -44 10 -28 10 9 14 24 11 33 -10 24 3 53 20 46 11 -4 14 5 14 40 0
30 5 47 14 50 20 8 27 -18 30 -104 1 -39 6 -74 12 -77 11 -8 12 -82 1 -99 -4
-6 -4 -30 -1 -53 5 -30 3 -40 -6 -38 -7 2 -15 -3 -17 -9 -3 -7 0 -13 6 -13 14
0 14 -37 1 -45 -14 -8 -13 -45 1 -45 7 0 9 -9 5 -22 -4 -13 -11 -45 -16 -73
-12 -63 -53 -189 -62 -193 -11 -5 21 -62 35 -62 8 0 7 -4 -3 -10 -12 -8 -12
-10 3 -16 9 -3 14 -11 11 -16 -4 -6 9 -25 28 -43 20 -17 39 -43 43 -56 4 -13
11 -28 15 -34 4 -5 10 -22 14 -36 7 -31 -17 -47 -40 -28 -25 21 -38 4 -14 -19
13 -12 26 -19 30 -17 4 3 13 -2 20 -9 9 -12 6 -14 -24 -10 -20 2 -36 2 -36 0
0 -14 24 -56 32 -56 5 0 6 -5 3 -11 -4 -6 2 -13 14 -16 38 -10 19 -30 -24 -24
-5 1 -3 -4 5 -12 23 -19 41 -57 34 -68 -3 -6 4 -21 17 -35 12 -13 17 -24 11
-24 -8 0 -9 -7 -3 -22 5 -13 14 -23 21 -23 7 0 15 -6 18 -14 3 -9 0 -11 -8 -6
-15 9 -11 -17 14 -108 19 -70 20 -90 4 -82 -7 4 -4 -2 7 -12 11 -10 19 -17 17
-16 -2 1 -13 -8 -23 -18 -17 -17 -19 -25 -10 -52 5 -18 13 -52 16 -77 4 -25
16 -76 27 -115 11 -38 23 -87 25 -107 l5 -36 -46 -7 c-26 -4 -48 -11 -51 -15
-4 -7 -71 -13 -133 -11 -13 1 -30 8 -38 16 -9 8 -29 15 -45 15 -26 0 -28 2
-18 18 7 11 21 18 33 17 12 -1 30 1 41 6 16 6 12 8 -17 10 -37 1 -49 3 -65 9
-5 2 -15 3 -23 4 -8 1 -16 9 -18 19 -2 10 0 17 5 16 4 -1 15 1 23 4 8 3 24 8
35 10 14 2 7 7 -22 16 -38 10 -59 31 -33 31 12 0 0 17 -39 56 -16 16 -36 24
-60 25 -26 0 -31 2 -17 8 10 4 31 6 46 5 17 -1 31 4 34 12 6 16 -1 17 -66 14
-36 -1 -51 3 -68 20 -31 31 -15 38 80 40 124 2 129 2 134 16 6 16 -3 17 -151
18 -51 1 -93 -2 -93 -6 0 -4 -7 -5 -15 -2 -8 4 -13 10 -10 14 3 4 -3 7 -12 6
-12 -1 -22 12 -31 42 -11 32 -19 42 -35 42 -14 0 -18 3 -11 10 5 5 46 11 89
12 l80 3 14 -48 c13 -43 18 -48 40 -45 14 1 32 -1 39 -5 15 -10 35 1 27 14 -6
9 34 14 83 11 14 0 22 4 19 11 -2 7 -17 11 -36 9 -33 -3 -101 14 -101 26 0 17
39 29 77 25 45 -4 61 8 37 28 -13 10 -17 10 -24 0 -5 -10 -9 -10 -15 -2 -4 7
-14 11 -23 10 -35 -3 -72 1 -72 9 1 23 22 35 66 36 29 1 49 7 52 15 3 9 -2 11
-14 7 -11 -3 -34 -8 -52 -10 -25 -3 -32 0 -28 10 3 9 -1 14 -12 15 -13 0 -11
3 6 9 32 13 28 16 -20 13 -37 -3 -40 -2 -19 7 27 12 90 11 106 -1 19 -14 11
26 -9 46 -10 11 -16 14 -12 8 9 -16 -30 -18 -39 -3 -5 8 -11 8 -20 0 -10 -8
-14 -7 -18 2 -4 9 -6 9 -6 -2 -1 -9 -12 -17 -27 -18 -14 -1 -23 2 -19 8 4 6
-10 10 -34 10 -41 0 -47 5 -33 25 10 15 90 19 105 7 13 -11 97 6 97 19 0 4
-14 12 -30 18 -22 7 -29 7 -24 0 4 -8 -1 -9 -17 -3 -13 4 -58 8 -99 9 -62 1
-75 4 -78 18 -4 19 -3 19 82 21 61 1 78 13 51 36 -10 8 -19 9 -27 3 -23 -17
-128 -2 -128 18 0 6 9 9 20 6 11 -3 22 -2 24 2 3 4 25 6 50 6 42 -2 46 0 46
22 0 12 -3 23 -7 24 -5 0 -47 1 -95 2 -99 3 -133 17 -40 17 34 0 62 4 62 9 0
5 20 9 45 9 24 0 49 3 55 7 24 15 6 22 -47 20 -37 -2 -64 2 -73 10 -11 10 -27
11 -59 5 -50 -9 -71 -4 -71 16 0 16 21 19 35 5 6 -6 32 -5 65 0 71 12 220 -7
237 -30 22 -29 8 33 -16 72 -28 45 -27 67 2 67 13 0 28 -5 35 -12 9 -9 12 -9
12 2 0 8 -33 47 -72 87 -49 50 -67 73 -55 73 10 0 16 4 12 10 -3 5 -12 7 -19
4 -18 -7 -106 48 -101 64 7 19 -9 14 -23 -8 -7 -12 -18 -17 -27 -13 -14 5 -14
7 1 24 9 10 13 23 9 29 -11 18 -35 -9 -35 -41 0 -15 -5 -31 -10 -34 -7 -4 -9
5 -5 25 3 20 2 29 -4 25 -6 -3 -13 7 -17 22 -4 15 -12 34 -17 41 -8 11 -7 13
7 10 12 -2 20 4 21 15 2 9 1 17 -2 17 -4 0 -45 -20 -51 -25 -2 -2 4 -14 13
-28 21 -33 -5 -47 -42 -24 -9 6 -13 1 -13 -17 0 -14 5 -28 10 -31 6 -3 10 -13
10 -22 0 -13 -5 -12 -27 8 -16 13 -22 17 -15 9 17 -20 15 -31 -5 -23 -11 4
-14 3 -9 -5 11 -19 -5 -14 -21 6 -13 16 -14 15 -10 -8 2 -14 8 -33 12 -42 4
-11 3 -18 -4 -18 -6 0 -11 6 -11 14 0 7 -8 31 -17 52 l-17 39 -7 -35 c-3 -19
-7 -27 -8 -17 -1 14 -6 17 -23 12 -13 -4 -26 -10 -31 -14 -13 -13 -67 0 -67
16 0 8 16 21 35 29 19 8 35 18 35 23 0 11 -48 24 -60 16 -6 -4 -10 -2 -10 4 0
14 38 38 73 46 30 8 29 7 21 29 -5 13 -9 14 -21 5 -10 -9 -17 -9 -25 -1 -16
16 0 33 27 28 32 -6 70 21 55 39 -8 10 -20 11 -43 4 -43 -12 -44 -12 -50 11
-3 11 1 27 10 35 19 20 29 19 13 0 -16 -19 -10 -19 25 -1 21 11 32 12 46 3 14
-9 21 -9 30 0 25 25 -20 35 -89 19 -15 -3 -28 1 -38 13 -13 15 -23 17 -57 10
-79 -15 -85 -12 -49 21 20 18 39 27 50 24 16 -5 16 -5 -1 6 -9 6 -21 9 -26 6
-5 -3 -11 1 -15 9 -3 8 -11 13 -18 10 -7 -3 -19 -1 -27 4 -12 8 -13 12 -1 26
18 22 -6 47 -37 39 -18 -5 -22 -13 -20 -37 2 -26 -2 -32 -20 -33 -13 -1 -23 4
-23 9 0 7 -4 7 -12 -1 -18 -18 -40 -15 -36 6 2 10 11 16 21 14 9 -2 17 3 18
10 0 7 4 4 8 -7 8 -19 8 -19 20 3 16 31 8 39 -36 37 -21 -2 -46 2 -56 7 -12 6
-23 6 -33 -3 -12 -9 -14 -6 -14 22 1 29 2 31 11 16 8 -13 14 -15 23 -8 6 5 29
12 51 14 53 5 55 22 3 22 -63 1 -158 16 -158 26 0 14 22 22 30 9 5 -8 9 -5 13
10 4 17 9 20 24 12 20 -10 43 -5 43 9 0 6 -4 8 -9 4 -5 -3 -13 -1 -16 5 -4 6
-24 8 -46 6 -21 -3 -39 -2 -39 2 0 4 -20 7 -45 7 -36 0 -45 -3 -45 -17 0 -10
7 -18 15 -18 8 0 15 -4 15 -10 0 -5 7 -10 15 -10 12 0 10 -5 -5 -20 -12 -12
-25 -18 -30 -15 -13 8 -20 -9 -9 -25 6 -10 9 -11 9 -2 0 6 7 12 15 12 10 0 15
-10 15 -29 0 -27 -3 -29 -40 -29 -22 0 -40 4 -40 10 0 6 -12 3 -26 -7 -26 -16
-26 -16 -19 7 4 12 11 30 16 38 7 12 8 12 9 -4 0 -19 1 -19 21 -1 15 14 19 28
16 52 -3 18 -1 33 4 33 5 0 6 7 3 15 -8 20 -35 0 -33 -24 3 -29 -1 -41 -12
-41 -5 0 -7 5 -4 10 3 6 2 10 -3 10 -11 0 -22 -34 -22 -67 0 -16 -6 -23 -20
-23 -21 0 -18 23 7 48 17 18 16 32 -2 32 -8 0 -15 4 -15 10 0 5 6 7 13 4 8 -3
18 5 25 18 6 14 11 17 11 8 1 -13 3 -13 10 -1 11 18 3 43 -12 34 -7 -4 -8 0
-4 11 4 10 7 22 7 27 0 6 5 7 10 4 6 -3 10 3 10 15 0 12 -4 18 -10 15 -5 -3
-10 -1 -10 5 0 6 -4 9 -9 6 -5 -3 -12 1 -15 10 -3 8 -2 13 3 10 5 -3 11 1 15
9 3 8 12 15 21 15 8 0 15 5 15 10 0 6 -4 10 -10 10 -5 0 -10 7 -10 17 0 14 -2
14 -20 -2 -15 -14 -23 -15 -33 -6 -8 6 -17 8 -20 5 -4 -4 -1 5 6 20 14 30 22
33 31 10 5 -12 10 -14 20 -5 7 6 16 8 19 4 4 -3 7 6 7 20 0 24 -3 26 -30 23
-17 -2 -30 1 -30 8 0 8 -3 8 -8 0 -4 -5 -37 -10 -74 -10 -38 1 -68 -2 -68 -5
0 -7 -32 -5 -45 3 -6 3 -27 8 -47 12 -21 4 -38 12 -38 17 0 6 8 8 19 4 10 -3
24 1 31 10 7 8 16 12 21 9 5 -3 14 -2 19 1 18 11 -10 36 -32 29 -36 -11 -65 3
-65 33 0 16 -10 34 -23 45 -21 17 -23 17 -35 1 -11 -15 -14 -15 -27 -2 -8 8
-14 28 -14 44 1 20 -4 30 -14 31 -8 1 -23 2 -32 3 -10 0 -18 6 -18 12 0 16 29
41 40 34 5 -3 10 -2 10 3 0 6 14 7 34 2 19 -4 37 -5 40 -2 3 2 13 -1 23 -9 11
-9 14 -10 9 -1 -4 6 -3 12 3 12 6 0 8 7 5 15 -4 8 -11 12 -17 8 -5 -3 -33 -6
-61 -7 -49 0 -51 1 -54 28 -2 16 1 33 7 39 8 8 11 7 11 -2 0 -7 6 -11 14 -8 8
3 16 2 18 -2 2 -4 15 -3 29 3 21 9 24 15 18 36 -4 16 -7 19 -8 8 -1 -21 -31
-25 -31 -4 0 7 7 19 16 26 19 16 107 22 115 8 9 -14 29 -1 29 18 0 8 -10 14
-25 14 -14 0 -25 -6 -25 -12 0 -14 -23 17 -33 43 -4 13 -1 16 14 12 10 -3 19
-12 19 -20 0 -11 5 -10 25 4 24 17 34 43 17 43 -5 0 -9 14 -10 30 -1 37 8 38
30 3 l17 -28 7 31 6 31 33 -15 c19 -9 32 -19 29 -24 -8 -13 2 -9 24 10 19 17
20 21 7 40 -8 11 -12 28 -8 38 6 16 7 15 21 -2 13 -18 14 -18 7 4 -4 13 -2 22
4 22 6 0 11 -4 11 -10z m-655 -234 c14 6 16 2 13 -22 -1 -16 -7 -32 -13 -36
-6 -5 -3 -8 6 -8 9 0 21 -10 27 -22 8 -18 11 -19 11 -5 1 19 31 24 31 5 0 -6
8 -4 19 6 16 15 20 15 33 2 12 -11 18 -12 27 -3 8 8 11 5 11 -11 0 -12 -3 -21
-7 -20 -5 0 -16 -2 -26 -7 -16 -7 -17 -9 -2 -32 17 -26 13 -59 -6 -47 -7 4 -9
-1 -7 -12 2 -11 9 -18 16 -17 6 2 16 -7 22 -18 9 -17 8 -23 -6 -33 -16 -12
-14 -14 16 -29 41 -21 50 -21 50 0 0 14 2 14 20 -2 14 -13 17 -22 10 -29 -14
-14 -13 -76 2 -76 6 0 1 -9 -11 -19 l-22 -19 35 -17 c42 -20 48 -44 11 -40
-14 2 -25 -1 -25 -6 0 -6 -4 -7 -10 -4 -14 9 -13 -8 2 -23 8 -8 15 -9 25 -1 9
8 14 7 19 -5 3 -9 10 -16 15 -16 4 0 5 8 2 18 -6 16 -6 16 10 0 9 -9 17 -20
17 -25 0 -12 -42 -14 -56 -2 -23 19 -25 -32 -1 -53 15 -13 18 -21 10 -24 -7
-3 -13 -13 -13 -22 0 -13 -3 -12 -15 4 -9 12 -14 14 -15 6 0 -7 -6 -10 -12 -7
-7 4 -2 -2 12 -13 14 -12 27 -19 29 -16 2 2 11 -1 18 -8 18 -15 53 -18 53 -5
0 6 3 8 6 4 3 -3 3 -15 -1 -27 -5 -15 -12 -19 -26 -15 -10 3 -28 8 -39 11 -33
9 -24 -23 11 -40 24 -12 35 -13 45 -5 11 9 14 8 14 -4 0 -9 5 -19 11 -23 8 -5
10 1 7 20 -5 23 -3 26 16 20 11 -4 27 -11 34 -16 8 -7 17 -6 27 2 12 10 15 10
16 -1 0 -8 4 -5 8 6 8 19 9 18 22 -8 9 -21 10 -30 1 -39 -9 -9 -12 -9 -12 0 0
6 -6 9 -14 6 -7 -3 -30 4 -50 15 -30 17 -36 18 -37 6 -1 -8 -3 -19 -4 -25 -1
-5 -3 -15 -4 -21 -1 -8 -5 -8 -16 1 -17 14 -85 31 -85 21 0 -4 18 -17 40 -30
36 -20 60 -47 60 -67 0 -5 -5 -3 -12 4 -17 17 -39 15 -32 -3 4 -8 10 -12 15
-9 6 3 17 0 26 -8 12 -9 15 -9 9 0 -9 15 7 16 51 3 22 -7 35 -6 40 1 4 7 10 2
16 -13 l9 -24 11 23 c5 12 14 22 19 22 12 0 -7 -32 -32 -53 -11 -10 -26 -14
-32 -10 -7 3 -23 7 -36 8 -22 1 -22 0 -5 -12 9 -8 23 -11 29 -9 7 3 20 -2 31
-9 21 -17 37 -19 28 -5 -8 13 -1 13 40 -4 33 -14 39 -13 36 7 0 4 6 7 15 7 9
0 14 6 11 13 -2 6 -12 11 -22 10 -26 -2 -64 35 -47 46 10 6 7 12 -12 25 -15 9
-26 12 -26 6 0 -7 -6 -8 -17 -2 -10 5 -32 9 -49 8 -23 -1 -34 5 -42 22 -15 31
3 37 52 17 l37 -16 -12 23 c-12 23 -12 23 10 4 11 -11 21 -14 21 -8 0 7 5 12
11 12 6 0 8 -8 5 -18 -8 -25 25 -54 66 -58 18 -2 35 -9 36 -15 3 -6 9 -6 18 2
23 19 28 2 10 -35 -17 -36 -22 -60 -7 -37 8 12 13 12 36 -3 20 -13 30 -15 35
-7 5 9 11 7 20 -4 12 -15 11 -18 -5 -28 -25 -14 -115 -17 -115 -4 0 5 -7 4
-15 -3 -11 -9 -19 -10 -28 -1 -10 8 -18 7 -32 -3 -18 -13 -18 -14 6 -21 37
-13 63 -13 71 -2 4 7 11 7 21 -2 12 -9 16 -9 19 1 3 8 9 5 17 -10 10 -19 15
-21 34 -10 12 7 32 14 45 15 18 3 22 -1 22 -20 0 -16 -7 -26 -20 -30 -11 -3
-20 -1 -20 5 0 6 -6 8 -12 5 -7 -2 -22 -1 -33 3 -29 10 -47 -10 -28 -32 11
-12 21 -14 44 -8 24 7 31 5 44 -13 20 -29 19 -43 -2 -26 -11 10 -14 10 -9 2 4
-7 2 -13 -3 -13 -6 0 -11 5 -11 10 0 6 -5 10 -11 10 -5 0 -8 -4 -5 -9 4 -5 1
-11 -6 -13 -6 -2 -8 -10 -4 -17 5 -7 13 -11 20 -8 6 2 19 -5 29 -15 16 -17 11
-23 -15 -19 -5 0 -8 -6 -8 -14 0 -18 -5 -18 -31 -5 -13 8 -19 7 -19 0 0 -6 13
-16 29 -21 53 -19 47 -58 -7 -44 l-27 6 23 -21 c22 -21 27 -62 7 -60 -5 1 -9
8 -7 16 4 18 -63 48 -90 41 -10 -3 -18 0 -18 6 0 6 -3 8 -6 5 -3 -4 -17 0 -32
8 -17 9 -28 10 -33 3 -3 -6 -21 -12 -40 -13 -19 -2 -48 -10 -64 -19 -38 -21
-26 -22 23 -2 l37 15 -25 -20 c-33 -27 -70 -42 -87 -36 -8 3 -11 1 -8 -4 3 -6
4 -10 1 -10 -11 0 -181 42 -185 46 -2 2 26 1 62 -2 57 -5 66 -4 61 9 -5 14
-56 32 -81 28 -7 -1 -13 3 -13 9 0 5 10 10 23 10 15 0 18 3 9 9 -7 4 -12 12
-11 17 3 19 -1 35 -9 30 -4 -2 -9 10 -10 27 l-3 32 25 -35 c38 -53 46 -61 57
-54 5 3 -4 21 -20 40 -17 19 -38 48 -47 66 -12 24 -18 28 -25 17 -7 -9 -8 -5
-3 13 4 19 0 35 -14 52 -10 14 -22 22 -26 18 -4 -3 -4 1 0 11 7 19 20 22 30 6
4 -7 9 -8 17 0 7 7 5 17 -5 33 -8 13 -18 50 -22 83 -6 56 -5 58 8 35 9 -14 15
-32 16 -40 0 -8 13 -24 28 -34 16 -10 29 -25 29 -32 0 -14 -10 -11 -42 15
l-20 16 20 -24 c11 -13 19 -26 18 -30 -2 -3 3 -6 10 -7 6 0 20 -4 29 -8 10 -5
31 -4 46 2 23 8 31 6 39 -7 10 -15 12 -15 18 2 9 22 -13 49 -35 42 -10 -3 -26
5 -40 20 -23 25 -23 25 -2 25 14 0 20 5 16 13 -3 8 -17 14 -32 14 -15 0 -40 3
-55 7 -22 5 -27 12 -27 39 0 25 3 29 11 17 9 -13 10 -13 6 0 -2 8 -9 16 -15
16 -7 1 -19 2 -27 3 -25 2 -17 38 10 45 24 6 36 26 15 26 -5 0 -10 -5 -10 -11
0 -6 -9 -1 -20 12 -16 21 -17 26 -5 35 8 6 15 17 15 24 0 10 3 10 15 0 19 -16
20 -3 1 16 -10 9 -16 10 -18 3 -3 -8 -10 -5 -21 6 -14 13 -21 14 -31 6 -10 -9
-16 -9 -21 -1 -14 23 4 39 45 38 22 0 44 2 47 6 3 3 12 1 20 -6 16 -13 28 -5
18 12 -4 7 -15 10 -25 7 -20 -5 -30 11 -30 48 0 28 -16 41 -47 37 -12 -2 -26
4 -31 15 -10 17 -11 17 -30 0 -20 -18 -20 -18 -28 5 -6 21 -7 22 -14 4 -6 -17
-7 -18 -13 -3 -7 17 27 44 37 29 5 -9 53 -8 63 1 3 4 17 7 31 7 21 0 23 2 12
15 -9 11 -16 12 -25 5 -9 -7 -20 -4 -38 10 -18 15 -27 17 -30 8 -3 -8 -6 -6
-6 5 -1 9 6 17 14 17 22 0 18 38 -5 50 -24 13 -26 30 -4 30 10 0 14 7 12 23
-3 23 -25 26 -105 14 -18 -2 -33 -1 -33 3 0 10 -20 8 -37 -3 -16 -10 -26 8
-18 33 10 31 -3 59 -24 53 -10 -2 -25 3 -35 12 -15 15 -16 15 -16 -2 0 -15 -2
-16 -10 -3 -13 20 -13 43 0 35 6 -4 18 -1 26 6 12 10 16 9 20 -9 7 -26 34 -18
34 10 0 15 -5 19 -20 15 -11 -3 -20 -1 -20 5 0 5 -4 7 -9 3 -5 -3 -13 0 -17 6
-4 8 -9 7 -15 -2 -10 -17 -19 -9 -25 26 -3 20 -1 25 8 19 17 -11 39 -11 61 -1
10 5 17 4 17 -3 0 -5 5 -10 11 -10 7 0 9 12 5 33 -8 44 18 71 63 64 33 -6 50
8 32 26 -15 15 -14 23 5 42 12 11 20 13 29 5 7 -6 20 -7 30 -4z m-227 -2077
l3 -36 -65 -17 c-36 -10 -76 -16 -89 -12 -17 4 -24 1 -24 -9 0 -21 30 -18 117
10 103 34 110 34 103 -12 -4 -21 -2 -34 3 -30 5 3 15 -6 21 -20 10 -21 10 -24
-3 -19 -7 3 -14 1 -14 -4 0 -5 -7 -6 -17 -3 -11 4 -14 3 -9 -5 4 -8 -3 -16
-19 -22 -37 -14 -55 -12 -55 5 0 11 7 14 24 9 18 -4 27 -1 34 13 12 23 25 82
15 67 -6 -9 -12 -8 -21 2 -10 12 -10 14 3 14 8 0 15 4 15 9 0 5 -31 0 -70 -12
-38 -11 -67 -23 -65 -28 3 -4 2 -14 -1 -23 -5 -13 -9 -14 -21 -5 -11 10 -11
14 -1 21 8 6 1 7 -20 3 l-33 -7 4 41 c2 23 8 45 13 50 9 8 68 30 89 32 6 1 19
8 30 15 31 22 50 13 53 -27z m1220 -532 c9 -7 12 -4 10 13 -5 43 20 32 27 -12
6 -33 17 -51 50 -80 28 -25 45 -49 49 -70 4 -20 22 -49 46 -72 50 -48 56 -95
19 -147 -25 -36 -24 -58 6 -99 14 -19 25 -47 25 -64 0 -24 -3 -27 -10 -16 -5
8 -10 25 -10 37 0 13 -11 30 -26 39 -19 13 -24 24 -21 41 3 18 -2 29 -19 40
-20 13 -22 18 -12 30 7 9 21 19 33 23 17 7 17 9 3 9 -10 1 -18 6 -18 12 0 8
-4 8 -14 0 -17 -14 -158 -11 -168 4 -4 6 -8 21 -8 35 0 15 -13 37 -32 55 -32
29 -32 29 -16 3 l17 -26 -62 4 c-34 2 -85 4 -114 6 -29 2 -58 9 -65 17 -11 11
-9 13 15 7 15 -3 27 -2 27 3 0 11 19 9 39 -3 10 -6 12 -5 7 2 -5 9 9 13 46 14
53 2 97 4 131 7 9 0 17 5 17 9 0 10 -14 11 -142 14 -49 2 -88 6 -88 10 0 5
-10 8 -22 8 -17 0 -19 3 -11 11 7 7 54 13 115 15 57 1 114 7 127 12 24 9 24 9
-8 15 -18 4 -37 5 -41 2 -4 -3 -10 2 -14 10 -7 19 -26 20 -26 2 0 -8 -7 -14
-15 -14 -8 0 -15 3 -15 7 0 4 -23 8 -52 9 -28 0 -56 5 -62 11 -10 10 5 13 57
13 9 0 17 4 17 8 0 5 5 9 11 9 5 0 7 -4 4 -10 -3 -5 3 -10 15 -10 14 0 19 4
14 13 -6 10 -4 10 7 0 16 -16 49 -17 49 -2 0 6 7 9 15 6 8 -4 17 -2 21 4 3 6
13 8 21 5 26 -10 36 6 11 19 -14 7 -28 8 -35 3 -7 -5 -14 -5 -18 2 -9 15 -75
13 -76 -2 0 -10 -2 -10 -6 0 -2 6 -17 12 -31 12 -21 0 -24 2 -12 10 8 5 30 10
48 10 49 0 74 16 66 43 -6 18 1 15 42 -17 27 -22 55 -44 62 -49z m-1008 -123
c14 -35 13 -224 -1 -224 -5 0 -8 -4 -5 -9 3 -4 -3 -16 -14 -26 -19 -18 -20
-17 -20 8 0 14 4 28 9 31 13 8 6 113 -9 131 -10 12 -23 14 -57 9 -54 -8 -55 2
-5 54 33 35 52 46 85 51 4 0 12 -11 17 -25z m2391 -3 c4 -44 -3 -98 -37 -260
-3 -13 -8 -21 -11 -18 -8 8 -43 -11 -43 -23 0 -5 7 -7 15 -4 22 9 18 -19 -5
-34 -12 -7 -20 -8 -20 -2 0 5 -7 10 -15 10 -14 0 -14 2 0 23 11 17 12 31 6 54
-5 17 -7 33 -5 36 2 2 -2 20 -11 40 l-14 35 44 34 c61 46 57 64 -6 22 -60 -40
-82 -44 -77 -11 2 12 9 21 16 20 6 -2 12 4 12 12 0 8 -3 15 -6 15 -3 0 -12 -7
-20 -15 -26 -26 -39 -16 -14 10 28 30 50 32 50 6 0 -14 6 -19 20 -18 12 1 19
7 18 15 -2 7 -7 12 -12 12 -10 -2 -26 20 -26 37 0 7 6 10 14 7 8 -3 16 -2 19
3 3 4 28 8 56 9 40 1 51 -2 52 -15z m-667 -297 c21 -8 21 -24 0 -24 -8 0 -13
-4 -10 -8 2 -4 -8 -13 -24 -20 -25 -11 -27 -15 -17 -36 7 -14 16 -22 22 -19 5
4 7 3 3 -1 -3 -4 -10 -8 -15 -8 -28 0 -47 -62 -22 -70 8 -3 6 -9 -4 -20 -16
-15 -13 -58 4 -58 5 0 5 8 2 18 -6 15 -5 15 11 3 18 -15 18 -44 1 -86 -7 -17
-6 -18 6 -8 22 17 54 19 72 4 25 -20 21 -34 -8 -29 -14 3 -25 1 -25 -4 0 -11
-33 -6 -42 7 -5 6 -11 6 -19 -2 -9 -9 -8 -16 5 -28 9 -9 16 -12 16 -6 0 6 11
11 25 11 14 0 25 -5 25 -11 0 -5 5 -7 11 -3 7 4 47 7 91 8 57 1 81 5 88 16 5
8 6 18 4 22 -3 4 0 8 6 8 7 0 10 7 6 15 -3 10 1 15 13 15 10 0 22 -8 25 -17 5
-12 9 -14 14 -5 7 10 31 18 65 21 4 1 7 5 7 10 0 10 -39 27 -53 23 -5 -1 -6 2
-2 8 3 6 11 8 16 5 5 -4 9 -2 9 2 0 5 14 8 30 7 17 -1 30 2 30 7 0 4 7 5 17 2
11 -4 14 -3 9 5 -5 8 0 12 13 12 12 0 21 5 21 10 0 7 6 7 18 1 9 -5 22 -9 27
-10 6 0 12 -17 15 -37 3 -21 10 -39 17 -41 8 -3 10 16 6 73 -5 57 -3 75 5 70
7 -4 12 -1 12 6 0 9 3 9 10 -2 8 -12 10 -10 10 10 1 25 1 25 10 3 14 -34 21
-28 8 7 -8 25 -13 28 -24 19 -10 -8 -14 -8 -14 0 0 6 -5 10 -11 9 -6 -2 -14 3
-16 10 -4 10 6 11 41 7 45 -7 46 -6 47 22 l1 28 8 -30 c4 -16 8 -22 9 -12 0
10 6 15 11 12 13 -8 13 8 0 21 -6 6 -6 22 -1 39 l8 30 7 -32 c4 -18 9 -54 10
-80 2 -27 6 -55 9 -63 4 -8 11 -46 16 -85 6 -38 14 -83 17 -99 5 -20 4 -27 -5
-22 -16 10 -14 -3 4 -20 17 -17 21 -69 5 -59 -13 8 -13 8 5 -40 17 -48 19
-115 4 -115 -8 0 -8 -4 -1 -13 15 -18 2 -195 -16 -206 -5 -3 -15 -33 -22 -66
-6 -33 -25 -105 -41 -160 -29 -99 -61 -254 -83 -410 -8 -60 -15 -81 -27 -83
-15 -3 -17 12 -18 114 -1 65 -3 120 -6 123 -3 2 -13 -3 -23 -12 -11 -12 -17
-35 -18 -68 -2 -58 -14 -81 -14 -26 0 40 -10 46 -31 21 -10 -12 -10 -17 0 -23
7 -5 11 -22 10 -38 -2 -17 2 -37 9 -46 7 -8 14 -42 15 -76 1 -33 5 -61 9 -61
4 0 17 18 28 40 11 22 22 40 25 40 6 0 -14 -52 -26 -67 -7 -8 -7 -18 0 -30 20
-38 -2 -45 -144 -42 -65 2 -152 0 -200 -4 -16 -1 -62 3 -100 9 -39 7 -92 11
-118 11 -26 -1 -47 1 -47 6 0 4 5 7 12 7 15 0 0 15 -15 15 -7 0 -11 8 -9 18 2
9 -3 17 -11 17 -8 0 -20 7 -27 16 -11 13 -10 16 8 21 25 6 27 15 11 45 -9 16
-7 24 10 42 29 31 27 50 -4 44 -21 -4 -23 -3 -15 13 13 24 21 28 64 33 38 5
40 4 50 -36 5 -20 2 -27 -11 -31 -10 -2 3 -7 29 -11 25 -5 55 -5 65 -2 20 6
20 7 26 99 2 36 9 62 18 68 12 8 11 11 -4 20 -14 8 -15 14 -5 32 13 26 12 171
-2 195 -8 15 -9 14 -10 -5 0 -18 -6 -23 -27 -23 -22 0 -25 2 -13 10 12 8 11
10 -6 10 -12 0 -28 7 -35 16 -11 14 -10 19 10 35 20 17 21 20 8 34 -9 8 -22
15 -29 16 -10 0 -10 2 0 6 6 2 12 11 12 18 0 25 19 26 41 4 l22 -22 -7 29 c-4
16 -9 58 -10 94 -2 36 -10 78 -20 95 -9 17 -16 35 -16 41 0 6 -7 25 -15 41
-14 29 -19 31 -55 26 -24 -3 -40 -2 -40 4 0 11 30 40 37 36 8 -7 23 -2 23 7 0
5 -23 9 -54 7 -57 -2 -64 -16 -24 -45 22 -16 23 -38 3 -46 -10 -4 -18 7 -27
37 -6 23 -18 51 -25 62 -19 29 -17 30 33 26 71 -5 78 16 8 24 -33 4 -64 12
-70 17 -16 12 -5 51 12 44 8 -3 24 -1 36 3 l23 9 -25 10 c-17 6 -29 6 -38 -1
-16 -13 -52 18 -52 45 0 27 -48 99 -70 105 -24 6 -15 33 11 33 13 0 19 -7 19
-24 0 -16 7 -27 20 -31 12 -4 24 -21 30 -45 11 -40 26 -49 68 -42 27 5 28 16
1 80 -25 59 -21 78 18 93 l28 10 -25 19 c-14 11 -29 20 -33 20 -5 0 -5 5 -2
10 4 6 11 7 17 4 6 -4 8 8 6 32 -2 33 0 39 17 39 15 0 22 -9 26 -35 5 -30 7
-31 8 -8 2 39 42 118 60 118 9 1 27 7 41 15 30 17 25 16 44 9z m431 -81 c13
-12 13 -19 0 -50 -8 -19 -13 -39 -10 -43 7 -11 -14 -24 -40 -26 -11 -1 -51 -5
-90 -8 -93 -9 -129 1 -133 40 -2 16 -8 34 -14 41 -5 7 -7 16 -4 22 8 12 81 25
121 22 17 -1 41 2 55 7 37 15 99 12 115 -5z m-1452 -206 c-8 -14 -12 -47 -5
-47 14 0 40 34 35 46 -8 22 24 17 47 -8 36 -39 26 -54 -57 -88 -88 -37 -190
-51 -204 -29 -5 8 -6 23 -3 34 4 11 3 17 -1 12 -10 -9 -45 21 -45 39 0 7 9 18
20 24 16 8 28 5 60 -16 41 -28 63 -28 36 -1 -16 15 -11 27 10 27 8 0 11 -6 8
-15 -7 -17 21 -21 32 -4 3 6 15 8 26 6 15 -4 17 -3 8 8 -16 19 -5 34 20 28 11
-3 17 -10 13 -16z m2707 -1134 c73 -12 -4 -22 -175 -22 -176 -1 -301 -19 -320
-44 -13 -18 -95 -37 -173 -41 -34 -2 -65 -6 -68 -9 -3 -3 -12 -3 -19 -1 -11 5
-24 -13 -31 -43 -1 -6 4 -14 12 -17 8 -3 13 0 11 7 -1 6 8 13 21 15 12 2 22
-2 22 -8 0 -7 -7 -10 -15 -6 -9 3 -15 0 -15 -10 0 -11 -5 -14 -17 -9 -45 17
-218 65 -234 65 -28 0 -121 21 -116 27 3 2 79 4 169 4 180 -2 399 27 528 69
36 11 88 24 115 29 52 8 244 4 305 -6z m-6494 -705 c5 -3 23 -4 39 -2 31 4
106 5 190 3 28 -1 79 -1 115 -1 36 1 92 0 125 -1 33 -2 70 1 81 4 12 4 26 3
33 -4 8 -8 14 -8 21 -1 7 7 29 8 56 4 24 -4 65 -6 89 -5 25 2 45 -1 45 -6 0
-5 -21 -9 -47 -10 -115 -2 -277 1 -281 6 -3 2 -13 0 -23 -6 -13 -6 -25 -6 -38
1 -11 5 -22 7 -24 3 -3 -5 -88 -7 -189 -6 -246 2 -235 1 -241 16 -5 13 30 16
49 5z m5804 -2 c110 -2 197 1 194 6 -3 4 6 4 20 -2 14 -5 46 -6 76 -1 28 4 53
5 56 0 6 -10 44 -7 44 4 0 4 5 5 12 1 16 -10 191 -11 199 -2 3 5 14 1 25 -7
18 -14 17 -14 -16 -16 -92 -3 -393 2 -401 7 -5 3 -9 1 -9 -3 0 -5 -26 -6 -57
-3 -32 3 -111 3 -175 0 -65 -3 -128 -2 -140 1 -13 3 -36 2 -53 -1 -35 -8 -144
2 -130 11 6 4 30 6 54 4 24 -2 54 0 65 5 12 4 25 5 29 3 5 -3 98 -6 207 -7z
m2237 -92 c-8 -8 -407 -10 -407 -2 0 4 -6 5 -14 2 -22 -9 -736 -10 -736 -1 0
14 44 25 52 13 5 -7 8 -7 8 -1 0 6 16 12 35 13 19 2 35 -2 35 -8 0 -5 5 -10
11 -10 5 0 8 4 5 8 -6 11 217 7 234 -3 8 -5 11 -4 7 2 -4 6 6 10 23 9 17 -1
30 -5 30 -10 0 -6 5 -5 12 2 15 15 32 16 22 1 -4 -8 -1 -8 13 -1 19 11 74 9
93 -3 6 -3 10 -2 10 2 0 14 44 13 52 0 5 -9 10 -9 18 -1 7 7 24 9 45 4 19 -4
36 -6 39 -3 8 9 65 9 60 1 -6 -10 10 -11 20 -1 9 9 48 12 61 5 14 -9 36 -9 63
0 14 5 22 3 22 -3 0 -8 4 -8 13 -2 6 6 47 9 90 8 49 -1 77 2 78 9 1 6 3 3 6
-7 3 -10 3 -21 0 -23z m-8421 16 c30 12 104 8 104 -5 0 -5 5 -3 10 5 7 11 10
11 10 2 0 -7 4 -11 9 -8 18 11 112 16 106 6 -8 -13 1 -13 25 0 13 7 21 7 25 0
4 -6 11 -7 18 -3 17 10 276 13 282 3 3 -6 16 -5 31 0 17 7 23 7 19 0 -7 -11 8
-14 18 -4 11 12 82 12 89 0 5 -8 11 -7 20 2 15 15 42 16 32 0 -5 -7 -3 -8 5
-3 14 8 377 9 429 1 18 -3 31 -2 28 2 -2 4 27 6 67 5 67 -3 86 -7 76 -18 -7
-6 -489 -8 -496 -1 -3 3 -14 1 -25 -5 -10 -5 -22 -8 -27 -5 -9 6 -64 7 -534 6
-203 -1 -371 1 -374 4 -3 2 -2 10 2 16 5 8 11 8 17 2 7 -7 19 -7 34 -2z m2024
-3 c0 -4 8 -4 18 1 17 10 59 8 117 -3 23 -4 25 -3 10 4 -15 6 -8 8 25 5 25 -1
47 -4 50 -5 16 -6 56 -2 62 6 5 6 8 5 8 -2 0 -9 7 -10 26 -3 33 13 47 13 39 0
-3 -5 -2 -10 4 -10 5 0 13 5 17 11 4 8 9 7 15 -2 7 -11 11 -12 17 -1 7 10 15
10 36 2 17 -6 25 -6 21 0 -3 6 0 10 9 10 8 0 16 -6 19 -12 4 -10 7 -10 18 0
16 15 69 16 69 1 0 -8 4 -8 13 -2 17 13 57 14 57 1 0 -7 4 -7 13 1 9 7 24 8
45 1 18 -5 30 -5 28 -1 -3 4 11 8 30 8 19 1 34 -3 34 -8 0 -5 5 -9 11 -9 5 0
7 5 4 10 -8 12 5 13 25 0 9 -6 17 -5 21 2 6 9 12 8 24 -2 12 -10 18 -11 24 -2
4 7 12 8 21 2 19 -12 33 -13 25 -1 -7 12 36 11 52 -1 6 -5 14 -5 18 2 9 15 35
12 35 -4 0 -18 -69 -24 -172 -16 -37 3 -79 2 -93 -2 -14 -3 -27 -3 -30 2 -3 4
-20 5 -37 1 -18 -3 -51 -5 -73 -4 -100 4 -184 6 -235 4 -30 -1 -135 -2 -234
-2 -98 0 -181 0 -185 -1 -3 0 -31 0 -62 1 -40 1 -56 5 -56 15 0 10 15 13 59
12 32 0 58 -5 58 -9z m4243 6 c3 9 10 9 27 -1 13 -8 25 -10 29 -5 7 11 51 11
69 0 7 -5 12 -3 12 4 0 11 9 10 70 -6 19 -5 22 -4 10 4 -8 6 -10 11 -4 11 5 0
16 -6 23 -12 8 -7 11 -8 8 -3 -3 6 26 10 79 11 46 0 84 -3 84 -7 0 -4 12 -6
28 -4 15 2 27 4 27 5 0 7 52 6 61 -1 10 -8 47 -5 88 7 14 5 16 3 10 -7 -6 -11
-5 -12 7 -3 17 13 49 14 49 2 0 -5 3 -7 8 -5 18 11 112 16 112 6 0 -5 5 -7 12
-3 16 10 118 11 118 1 0 -4 9 -3 19 3 27 14 41 13 41 -4 0 -12 -32 -15 -192
-16 -106 0 -228 -1 -270 -1 -43 0 -82 2 -88 6 -5 3 -10 2 -10 -3 0 -5 -12 -8
-27 -5 -16 2 -86 3 -158 2 -71 0 -146 -1 -165 -1 -118 -1 -139 2 -134 16 4 11
12 13 29 6 16 -6 25 -5 28 3z m-3453 -83 c0 5 11 9 25 8 14 -1 25 -6 25 -10 0
-4 7 -8 15 -8 8 0 15 4 15 9 0 6 43 9 100 8 55 -1 100 -3 100 -5 0 -22 -241
-35 -248 -13 -3 9 -8 9 -17 1 -11 -9 -264 -15 -415 -9 -8 0 -98 0 -200 -1
-329 -1 -442 -2 -603 -1 -43 0 -82 0 -85 0 -33 -5 -62 3 -62 17 0 12 11 15 55
12 30 -2 55 -6 55 -10 0 -5 5 -8 11 -8 5 0 8 4 5 8 -3 4 94 9 215 9 134 1 217
-2 214 -8 -4 -5 -2 -9 4 -9 5 0 12 4 15 8 2 4 34 8 71 10 41 1 64 -2 60 -8 -3
-6 1 -10 10 -10 9 0 14 4 11 8 -3 5 16 9 42 10 26 0 50 -5 54 -11 6 -9 8 -9 8
1 0 9 18 12 65 11 44 -1 62 -5 58 -13 -4 -6 -1 -6 8 1 17 14 155 13 178 -1 9
-6 12 -5 8 1 -4 7 16 11 56 12 43 0 58 -2 47 -9 -13 -8 -12 -10 3 -10 9 0 17
5 17 11 0 5 4 8 9 4 5 -3 13 -1 16 5 5 8 15 6 31 -5 13 -8 24 -11 24 -5z
m2835 0 c5 -7 11 -8 19 -1 16 13 226 11 226 -3 0 -8 2 -8 8 0 9 14 273 13 264
-1 -3 -5 2 -4 11 4 14 11 23 12 43 2 16 -7 23 -7 19 -1 -9 14 118 11 127 -3 4
-8 11 -8 20 0 7 6 31 11 53 11 25 1 35 -2 27 -7 -8 -4 -12 -11 -10 -15 4 -9
-668 -10 -682 -1 -5 3 -10 1 -10 -5 0 -6 -5 -8 -10 -5 -6 4 -8 11 -5 16 4 5
-1 9 -10 9 -9 0 -13 -4 -10 -10 4 -6 -15 -10 -48 -10 -40 0 -56 4 -61 15 -6
17 19 21 29 5z m1107 -4 c6 -8 8 -8 8 0 0 16 110 17 129 1 8 -7 12 -7 9 -2 -4
6 47 11 143 12 114 1 148 -1 142 -10 -5 -9 -3 -9 8 -1 16 13 442 14 455 2 4
-5 12 -8 18 -8 6 0 4 5 -4 10 -13 9 -13 10 0 10 9 0 22 -6 29 -12 11 -10 13
-10 7 0 -5 8 0 12 13 12 12 0 21 -6 22 -12 0 -10 2 -10 6 0 6 15 33 16 33 0 0
-9 3 -9 12 0 15 15 64 16 73 2 4 -7 13 -7 24 -1 23 13 201 12 225 -1 13 -7 16
-7 12 1 -4 6 4 9 22 8 20 -1 28 -7 25 -17 -3 -13 -30 -15 -166 -14 -110 1
-162 5 -165 13 -5 14 -23 15 -19 0 2 -11 -714 -16 -733 -4 -5 3 -10 3 -10 -2
0 -4 -44 -7 -97 -6 -54 1 -146 3 -204 3 -83 2 -106 5 -106 16 0 17 78 17 89 0z
m-1757 -738 c-4 -40 -8 -74 -9 -74 0 -1 -22 -5 -48 -8 -32 -5 -48 -4 -48 3 0
6 -4 11 -10 11 -5 0 -10 -9 -10 -21 0 -11 5 -17 10 -14 6 3 10 -1 10 -10 0
-15 1 -15 16 0 12 12 19 13 30 4 10 -8 14 -8 14 0 0 6 5 11 10 11 15 0 13
-120 -2 -121 -107 -9 -120 -8 -115 12 4 13 0 19 -12 19 -10 0 -25 19 -39 48
-24 51 -27 67 -12 57 6 -3 10 -1 10 4 0 6 -4 11 -10 11 -13 0 -13 47 0 55 7 4
6 13 -1 26 -6 12 -9 22 -7 24 33 28 138 36 138 10 0 -8 7 -15 15 -15 8 0 15 6
15 14 0 16 15 24 44 25 17 1 17 -5 11 -71z m-2501 -482 c17 -116 19 -143 11
-134 -3 3 -14 63 -24 134 -11 71 -19 113 -20 93 -1 -20 8 -96 19 -169 12 -73
19 -134 17 -137 -8 -8 -26 102 -60 372 -3 24 -4 22 -6 -10 0 -23 6 -94 14
-159 9 -65 14 -123 12 -130 -2 -6 -11 41 -20 104 -9 63 -19 126 -21 140 -2 15
-4 9 -5 -15 0 -22 8 -101 19 -175 20 -137 23 -167 16 -159 -5 5 -43 262 -55
369 -8 68 -9 70 -10 24 0 -28 8 -120 20 -204 11 -83 18 -154 16 -156 -5 -5
-32 162 -47 286 -12 105 -13 367 -1 374 5 4 12 0 14 -6 3 -8 6 -5 8 7 1 11 5
-2 9 -30 l7 -50 1 53 c2 39 6 52 17 52 8 0 15 8 16 18 1 11 4 9 9 -8 8 -25 8
-25 11 5 1 17 6 -62 9 -175 4 -113 15 -254 24 -314z m2614 439 c1 -33 6 -69
11 -80 15 -31 19 -85 7 -86 -6 0 -19 -2 -30 -4 -35 -7 -48 6 -42 38 4 19 1 36
-8 46 -31 36 -23 135 12 144 40 11 47 3 50 -58z m-2877 -150 c-3 -166 8 -319
39 -510 23 -139 24 -148 9 -140 -7 5 -9 -8 -5 -41 10 -76 -10 -21 -23 66 -15
96 -25 105 -16 15 4 -38 5 -67 1 -64 -7 7 -42 230 -61 394 l-14 120 5 -106 c2
-58 11 -146 19 -195 8 -49 14 -100 14 -114 0 -23 -1 -24 -10 -5 -7 14 -8 4 -5
-35 5 -66 -9 -41 -20 35 -7 46 -8 48 -14 20 l-7 -30 -7 25 c-3 14 -15 90 -25
170 -11 80 -20 124 -20 99 -1 -47 25 -255 34 -270 3 -4 1 -10 -4 -13 -10 -6
-37 160 -50 304 -7 86 -8 89 -9 30 0 -36 7 -125 16 -197 10 -73 15 -133 11
-133 -9 0 -42 265 -50 410 l-7 135 3 -160 c2 -88 11 -211 20 -273 9 -63 14
-119 12 -125 -6 -19 -38 199 -44 306 -3 53 -8 95 -11 92 -8 -7 -4 -92 9 -202
6 -50 9 -97 7 -105 -8 -23 -30 156 -37 314 l-8 153 -1 -110 c-2 -94 15 -297
33 -415 4 -23 2 -30 -3 -20 -13 21 -42 252 -42 329 0 35 -3 61 -7 58 -10 -10
-4 -138 13 -261 15 -116 17 -142 10 -135 -10 10 -37 234 -46 374 l-9 150 5
-165 c2 -91 10 -207 17 -257 7 -51 10 -93 7 -93 -8 0 -40 250 -41 320 -1 30
-5 66 -9 80 -12 35 -2 -138 16 -285 8 -66 17 -138 20 -160 3 -28 2 -34 -4 -20
-15 33 -44 265 -52 412 -7 133 -7 135 -8 42 -1 -53 5 -163 13 -244 9 -81 14
-149 12 -151 -6 -6 -28 150 -37 258 -6 80 -7 85 -9 33 -1 -52 16 -225 35 -345
4 -24 2 -30 -4 -20 -5 8 -18 84 -28 168 -10 83 -21 152 -25 152 -3 0 0 -51 7
-112 7 -62 15 -138 18 -168 10 -94 -4 -39 -23 91 -16 107 -19 117 -21 69 l-2
-55 -9 38 c-5 22 -13 103 -18 180 -7 130 -8 134 -10 52 0 -50 6 -146 14 -215
8 -69 17 -147 20 -175 10 -102 -15 15 -35 165 -16 121 -19 131 -15 60 3 -47 7
-108 10 -135 4 -34 3 -43 -3 -30 -5 11 -13 56 -18 100 -4 44 -10 69 -12 57 -3
-21 9 -131 24 -226 4 -22 3 -27 -4 -16 -5 8 -17 71 -26 140 -23 177 -23 180
-25 134 0 -22 6 -91 14 -154 8 -62 13 -115 11 -117 -12 -12 -38 180 -46 337
l-7 145 -1 -110 c-1 -60 5 -164 13 -230 8 -66 14 -127 14 -135 -2 -33 -28 120
-34 203 -4 48 -11 89 -15 92 -9 6 -3 -65 21 -239 10 -77 17 -141 15 -143 -11
-11 -46 234 -55 382 l-8 120 -1 -95 c-1 -52 5 -144 13 -205 17 -127 17 -131 8
-121 -4 4 -15 64 -25 134 -15 108 -17 115 -13 47 3 -44 7 -105 9 -135 8 -82
-22 89 -33 192 -7 70 -9 75 -10 32 0 -29 8 -120 19 -204 21 -154 21 -214 1
-98 -21 122 -33 224 -41 338 l-7 115 -1 -90 c-1 -49 5 -139 13 -200 8 -60 14
-119 14 -130 -2 -40 -19 44 -33 157 -9 72 -14 95 -14 63 0 -27 5 -89 12 -137
7 -49 9 -88 6 -88 -11 0 -31 149 -40 291 l-8 134 3 -145 c3 -137 25 -319 46
-385 7 -24 8 -18 5 30 l-4 60 14 -59 c16 -64 10 -78 -31 -72 -15 2 -22 15 -30
64 -7 34 -8 62 -5 62 4 0 10 -23 14 -51 4 -28 10 -49 13 -46 3 3 -4 75 -16
159 -29 211 -28 208 -30 160 0 -24 4 -74 10 -112 6 -39 9 -78 7 -87 -6 -24
-26 97 -38 217 l-9 95 5 -105 c4 -100 34 -315 49 -352 4 -11 3 -18 -4 -18 -12
0 -14 8 -35 145 -17 110 -34 267 -39 360 -3 47 -4 41 -5 -27 -1 -48 7 -157 18
-244 12 -86 19 -158 17 -161 -6 -5 -26 107 -42 237 -9 70 -13 89 -14 58 -1
-62 37 -330 50 -343 6 -5 9 -2 10 10 0 19 1 19 9 0 13 -31 12 -35 -12 -31 -21
3 -25 14 -46 137 -12 74 -27 199 -32 279 l-9 145 4 -150 c2 -83 13 -206 24
-275 11 -68 18 -126 16 -128 -9 -10 -43 197 -60 373 l-14 140 4 -110 c3 -60
11 -157 19 -215 27 -194 27 -199 16 -165 -9 28 -45 260 -54 350 -2 22 -2 0 0
-50 3 -79 23 -241 39 -315 4 -18 3 -21 -4 -10 -15 26 -52 269 -61 400 l-9 125
4 -135 c3 -74 13 -191 25 -260 22 -140 23 -146 13 -137 -3 4 -16 67 -29 140
-12 72 -22 121 -23 107 0 -14 6 -70 14 -124 15 -102 18 -132 11 -125 -12 12
-50 282 -56 399 l-7 135 -1 -107 c-3 -143 42 -461 62 -448 4 3 14 -6 21 -20
l14 -25 1 25 c0 20 2 22 10 10 8 -13 10 -13 10 -1 0 11 4 9 15 -5 13 -18 14
-18 15 -1 0 10 5 15 10 12 6 -3 10 -1 10 4 0 6 5 11 10 11 6 0 10 -8 10 -17 0
-11 3 -14 8 -7 8 11 72 13 72 2 0 -4 7 -5 15 -2 11 5 15 -1 15 -17 0 -16 -3
-20 -8 -11 -10 14 -42 6 -42 -12 0 -6 -4 -4 -10 4 -12 20 -20 9 -13 -19 3 -13
11 -20 19 -17 8 3 14 1 14 -3 0 -5 3 -17 6 -26 6 -14 3 -14 -20 -4 -23 11 -31
26 -27 52 0 4 -6 7 -14 7 -9 0 -20 10 -25 23 -8 19 -9 20 -9 3 -1 -11 -4 -16
-8 -13 -3 4 -12 2 -18 -3 -9 -8 -14 -6 -19 5 -5 15 -8 15 -21 1 -8 -8 -15 -21
-16 -28 0 -7 -4 -3 -10 10 -5 13 -13 21 -18 18 -17 -11 -66 268 -80 444 -5 79
-9 96 -9 55 -3 -123 55 -517 79 -539 9 -8 10 -7 6 7 -6 17 -4 16 19 -2 15 -12
32 -21 40 -21 7 0 15 -6 17 -12 3 -7 6 -2 6 12 1 20 3 22 11 10 21 -33 -3 -48
-40 -25 -6 3 -10 0 -10 -7 0 -9 -3 -9 -10 2 -8 12 -10 10 -10 -10 -1 -22 -2
-23 -11 -7 -6 9 -14 15 -20 12 -5 -4 -9 -1 -9 6 0 8 -4 8 -15 -1 -24 -20 -42
-5 -49 39 -6 38 -25 58 -27 29 -1 -19 -58 262 -60 297 -1 17 -3 23 -6 13 -2
-10 3 -62 11 -117 17 -105 19 -127 11 -119 -12 12 -48 243 -54 353 -8 117 -8
118 -9 35 -2 -71 30 -326 55 -445 3 -16 2 -27 -2 -23 -4 4 -11 27 -16 50 -28
145 -43 237 -54 343 -7 66 -13 100 -14 75 -1 -49 21 -240 39 -329 5 -30 8 -56
5 -59 -7 -8 -14 17 -34 133 -11 61 -20 96 -20 78 -1 -17 6 -67 14 -110 8 -43
15 -87 14 -98 l0 -20 -8 20 c-15 37 -44 229 -51 340 -7 108 -7 108 -8 30 -1
-44 7 -141 18 -215 11 -74 20 -141 20 -149 0 -69 -47 193 -56 309 -4 47 -8 87
-10 89 -16 18 10 -227 41 -382 15 -81 19 -114 10 -106 -9 10 -55 261 -62 335
-3 41 -9 76 -13 79 -9 5 6 -129 31 -272 12 -67 19 -127 17 -134 -2 -7 -15 45
-29 117 -13 71 -25 121 -27 112 -2 -10 8 -82 23 -159 14 -78 23 -144 21 -147
-7 -6 -14 27 -53 248 -10 52 -19 88 -21 79 -2 -9 8 -81 22 -160 27 -147 29
-165 22 -158 -9 9 -66 307 -72 379 -4 41 -11 82 -15 90 -12 21 -1 -78 27 -247
24 -145 27 -170 20 -162 -13 12 -60 288 -66 384 l-7 110 -1 -86 c-1 -53 7
-137 23 -225 39 -218 29 -228 -14 -14 -11 52 -19 87 -20 77 -1 -20 24 -175 43
-265 7 -34 9 -59 5 -55 -4 4 -22 78 -39 163 -18 85 -34 157 -36 159 -7 7 -4
-32 6 -79 6 -25 17 -81 25 -125 8 -44 17 -91 21 -105 4 -19 3 -21 -4 -10 -15
22 -72 306 -81 402 -6 61 -9 70 -10 35 -1 -51 11 -147 35 -264 14 -74 18 -110
9 -102 -10 11 -57 270 -65 364 l-9 100 4 -105 c2 -58 15 -166 30 -240 35 -182
39 -206 32 -200 -14 13 -74 324 -86 445 -8 78 -8 78 -10 22 -1 -59 22 -209 60
-390 12 -54 19 -100 17 -103 -5 -4 -56 215 -77 326 -5 25 -9 34 -10 20 -1 -13
15 -102 34 -198 20 -96 34 -179 32 -185 -8 -25 -90 392 -97 492 -7 100 -7 101
-8 31 -2 -91 35 -331 72 -467 8 -29 11 -53 7 -53 -15 0 -88 353 -100 484 -7
81 -8 84 -10 31 -1 -63 16 -185 50 -348 11 -54 19 -101 16 -103 -8 -9 -76 301
-77 351 0 17 -5 37 -11 45 -7 11 -8 6 -5 -20 13 -86 39 -224 62 -328 14 -62
24 -118 21 -125 -6 -19 -72 276 -100 453 -4 22 -4 21 -5 -5 -2 -33 25 -190 58
-334 11 -52 19 -99 17 -105 -3 -9 -31 100 -76 299 -5 22 -9 31 -10 19 -1 -19
25 -149 49 -249 5 -22 9 -49 9 -60 -1 -28 -36 105 -69 265 -16 74 -29 125 -29
112 -1 -21 37 -219 59 -307 12 -49 12 -94 0 -50 -21 76 -63 257 -74 325 -8 41
-14 63 -15 48 -1 -32 32 -210 60 -320 19 -76 23 -106 14 -97 -8 9 -66 244 -85
349 -14 72 -18 86 -14 45 2 -33 20 -131 40 -219 19 -88 33 -164 31 -170 -6
-15 -75 281 -91 389 -8 50 -14 74 -15 55 -1 -42 28 -203 64 -355 30 -127 40
-182 33 -175 -5 5 -58 212 -91 360 -9 36 -16 54 -16 41 -1 -14 5 -52 13 -85
62 -259 86 -370 82 -374 -3 -2 -8 9 -12 24 -3 16 -20 81 -36 144 -17 63 -43
176 -59 250 -16 74 -27 110 -24 80 3 -30 26 -142 50 -248 25 -107 45 -197 44
-200 -3 -32 -89 305 -109 426 -6 39 -14 72 -17 72 -13 0 12 -127 93 -466 8
-36 14 -68 11 -70 -3 -4 -51 175 -89 331 -6 27 -13 44 -15 38 -4 -11 12 -82
68 -312 10 -40 14 -70 10 -65 -11 12 -75 262 -112 434 -16 74 -26 113 -23 85
6 -61 28 -174 54 -279 20 -79 25 -114 14 -104 -6 6 -58 216 -79 318 -7 36 -14
53 -14 37 -1 -15 17 -105 39 -200 23 -94 43 -185 46 -202 18 -111 -75 239
-101 380 -7 39 -14 58 -14 44 -1 -32 28 -177 64 -317 14 -55 25 -109 24 -119
0 -21 -45 132 -83 287 -14 58 -23 85 -20 60 2 -25 20 -109 39 -187 33 -135 40
-172 31 -162 -6 6 -43 145 -76 284 -16 66 -29 111 -29 100 -1 -24 29 -165 58
-275 19 -71 26 -119 16 -109 -4 5 -77 291 -93 369 -6 26 -10 35 -11 21 -1 -19
54 -274 85 -396 4 -16 3 -17 -4 -5 -8 12 -86 315 -105 405 -4 16 -5 16 -6 -4
0 -14 6 -52 13 -85 8 -34 29 -118 45 -187 17 -70 31 -131 30 -135 -3 -40 -94
318 -114 447 l-14 94 5 -79 c3 -44 26 -163 50 -265 24 -102 44 -189 44 -195 0
-28 -14 19 -60 195 -56 216 -59 190 -4 -37 19 -81 33 -152 31 -158 -2 -6 -9 9
-14 34 -28 120 -58 223 -61 209 -2 -9 9 -65 23 -124 14 -59 24 -110 21 -112
-2 -3 -6 4 -9 14 -3 10 -17 64 -32 121 -15 56 -29 101 -32 99 -2 -3 6 -47 18
-98 12 -52 23 -105 25 -119 4 -26 -28 71 -41 125 -4 17 -10 24 -12 17 -3 -7 3
-44 12 -83 10 -38 15 -72 12 -75 -2 -3 -13 28 -22 68 -23 93 -36 118 -29 53 4
-39 3 -47 -6 -35 -9 12 -10 3 -6 -40 l5 -55 -14 48 c-19 68 -27 71 -21 7 l6
-55 -20 60 c-14 42 -19 49 -15 25 2 -19 7 -46 11 -60 5 -17 3 -22 -4 -15 -14
14 -42 117 -35 128 3 5 9 3 14 -4 7 -11 9 -9 9 6 0 11 -5 27 -10 35 -7 11 -10
11 -10 2 0 -27 -18 0 -30 45 -7 27 -15 42 -17 35 -3 -7 0 -27 6 -44 6 -17 11
-38 11 -46 0 -31 -14 0 -36 80 -31 113 -30 66 1 -56 29 -114 30 -128 9 -101
-16 19 -16 19 -10 -10 15 -75 17 -100 7 -84 -6 9 -13 32 -16 50 -10 58 -83
335 -84 316 -1 -9 8 -60 20 -113 11 -53 18 -98 15 -102 -3 -3 -6 -1 -6 4 -1 5
-16 68 -35 139 -49 190 -45 144 10 -110 4 -21 3 -25 -3 -15 -14 22 -62 224
-62 260 0 32 16 41 23 13 4 -14 5 -12 6 5 2 39 20 24 24 -20 l4 -43 1 48 c2
50 21 66 23 20 l1 -28 7 30 c3 17 11 30 16 31 6 0 17 3 25 6 73 27 150 40 150
25 0 -6 7 -2 15 9 10 14 14 15 15 5 0 -11 4 -9 15 5 10 14 14 15 15 5 0 -11 4
-9 15 5 14 19 14 19 15 -1 1 -17 3 -17 11 5 7 18 12 21 18 11 7 -10 10 -9 14
3 4 9 10 16 14 15 4 -1 10 0 13 1 7 2 31 8 55 12 11 2 25 6 30 9 6 4 20 5 33
4 12 -1 22 3 22 8 0 5 7 7 15 3 8 -3 15 -1 15 4 0 6 4 10 10 10 5 0 7 -8 4
-17 -3 -10 2 -7 10 7 l15 25 1 -25 c1 -24 1 -24 15 5 11 24 14 26 15 10 1 -19
2 -18 10 3 14 33 23 27 17 -10 -6 -33 1 -23 18 27 5 13 9 16 12 7 4 -10 9 -8
19 5 10 14 13 14 14 4 0 -11 4 -9 15 5 8 10 15 16 15 12 0 -4 11 -3 25 2 18 7
25 6 25 -2 0 -7 7 -3 15 8 10 14 14 15 15 5 0 -11 4 -9 15 5 14 18 14 17 10
-16 l-5 -35 11 38 c13 43 28 50 23 10 -4 -26 -3 -25 6 3 11 35 49 54 51 26 1
-14 2 -14 6 1 3 11 11 16 19 13 8 -3 14 -2 14 3 0 5 9 11 20 14 15 4 20 0 21
-16 1 -21 2 -20 15 23 5 13 6 13 14 0 8 -12 10 -12 10 -1 0 7 6 11 14 8 8 -3
17 -1 20 6 2 7 5 1 6 -13 2 -22 3 -21 12 10 11 34 11 34 18 10 8 -24 8 -24 9
-2 1 24 16 30 24 10 4 -8 6 -7 6 3 1 19 41 34 41 16 0 -8 4 -7 9 2 5 7 14 10
20 7 6 -4 11 -2 11 4 0 7 7 10 15 6 8 -3 15 0 16 7 0 7 4 3 9 -8 8 -18 9 -19
9 -1 1 12 6 16 16 12 8 -3 15 0 16 7 0 9 2 8 6 -1 4 -10 8 -9 19 5 13 17 13
17 14 -2 1 -16 4 -14 15 10 l15 30 -4 -27 c-1 -15 1 -25 5 -22 5 3 9 13 9 23
0 10 9 21 20 24 15 4 20 0 21 -16 2 -22 2 -22 6 -1 4 20 43 38 112 51 14 2 29
10 33 16 5 9 8 8 8 -3 0 -10 3 -11 8 -3 4 6 50 24 102 39 90 26 331 113 368
134 37 20 217 102 231 105 9 2 28 8 44 14 15 6 27 7 27 3 0 -4 5 0 10 8 8 12
10 10 11 -10 1 -21 2 -20 11 10 11 34 11 34 18 10 8 -25 8 -25 11 5 2 25 3 22
9 -15 l7 -45 1 41 c2 32 8 54 16 54 1 0 -1 -70 -3 -155z m109 120 c4 24 8 -19
9 -108 0 -81 8 -211 17 -289 8 -77 13 -142 11 -144 -5 -5 -25 136 -33 236 -4
41 -8 77 -10 79 -10 11 -2 -97 15 -234 32 -246 32 -246 21 -205 -19 71 -51
329 -57 455 -6 135 6 295 16 210 l5 -40 6 40z m-49 -50 c3 31 6 4 7 -70 2
-140 16 -298 38 -442 9 -57 14 -108 12 -114 -5 -14 -37 193 -53 341 -7 66 -13
95 -14 68 -1 -54 34 -342 54 -438 12 -60 12 -80 0 -69 -2 3 -7 23 -10 44 -2
21 -7 41 -11 44 -4 3 -4 -19 0 -49 10 -85 -9 -36 -23 60 -7 47 -19 123 -28
170 -8 50 -16 168 -18 285 l-3 200 8 -165 c8 -175 37 -431 52 -465 9 -22 5 27
-18 195 -21 154 -28 314 -18 405 l9 80 5 -65 6 -65 5 50z m609 -1089 c14 -2
48 -10 75 -19 28 -8 92 -28 143 -43 61 -18 92 -32 92 -42 0 -8 6 -12 15 -8 8
3 15 1 15 -4 0 -6 7 -10 15 -10 22 0 93 -72 101 -104 6 -23 1 -33 -27 -61 -42
-41 -150 -89 -162 -72 -6 9 -10 9 -14 -1 -2 -6 -8 -10 -13 -7 -4 3 -27 -13
-51 -35 -24 -22 -47 -40 -50 -40 -3 0 -13 -16 -22 -35 -11 -23 -26 -37 -44
-41 -15 -4 -34 -14 -41 -23 -11 -14 -11 -13 -2 7 6 12 14 22 19 22 4 0 8 7 8
14 0 8 -3 15 -6 14 -19 -2 -44 4 -33 9 6 2 10 9 7 13 -3 5 3 18 13 28 14 14
16 21 6 30 -6 6 -14 9 -16 7 -2 -3 -4 9 -4 25 0 30 10 40 19 20 3 -6 4 -5 3 2
-1 7 -19 14 -39 16 -26 2 -35 7 -31 15 4 7 3 9 -1 5 -5 -5 -10 -19 -11 -33 -2
-22 0 -24 17 -15 15 8 19 7 19 -5 0 -8 -5 -15 -10 -15 -6 0 -15 -10 -20 -22
-7 -18 -9 -19 -9 -5 -1 9 -5 17 -10 17 -5 0 -13 10 -16 23 -4 12 -14 38 -23
57 -15 34 -26 156 -15 174 3 4 9 2 14 -5 7 -11 11 -12 17 -1 11 16 91 23 116
10 13 -7 16 -7 12 1 -4 7 1 11 13 11 13 0 21 6 21 18 0 10 -3 13 -8 6 -4 -6
-15 -10 -25 -8 -9 1 -15 -2 -11 -7 10 -16 -8 -10 -23 9 -14 16 -14 16 -9 -3 6
-19 5 -19 -8 -2 -8 10 -20 19 -28 21 -7 1 -19 5 -25 9 -8 5 -13 3 -13 -4 0 -8
-3 -9 -14 0 -7 6 -11 22 -9 35 3 15 -1 25 -12 29 -9 4 -14 3 -10 -3 3 -6 2
-10 -4 -10 -19 0 -23 21 -5 34 15 12 47 12 114 2z m1910 -45 c0 12 2 12 10 -1
5 -8 10 -12 10 -7 0 18 50 -28 50 -47 0 -21 19 -60 20 -41 0 15 20 -18 20 -34
0 -10 -3 -11 -14 -2 -12 10 -14 8 -10 -11 4 -18 1 -16 -10 7 -11 24 -15 26
-15 10 -1 -17 -3 -17 -11 -5 -9 13 -10 13 -10 0 0 -13 -1 -13 -10 0 -8 12 -10
12 -9 -5 0 -11 4 -29 9 -40 8 -18 9 -18 10 5 1 23 2 23 10 5 8 -19 9 -19 9 -1
1 26 10 16 21 -25 9 -31 8 -32 -5 -15 -15 20 -15 20 -16 0 0 -10 -3 -13 -6 -6
-2 6 -12 12 -20 12 -12 0 -14 -9 -9 -47 5 -34 4 -44 -3 -33 -9 13 -11 12 -11
-5 0 -15 -2 -17 -9 -6 -5 7 -14 10 -20 7 -7 -5 -11 3 -11 21 0 23 2 25 11 13
8 -12 10 -8 6 15 -6 31 14 70 28 57 4 -4 5 2 2 13 -17 60 -20 78 -8 71 7 -5
11 1 11 14 0 16 -5 20 -15 16 -8 -3 -15 0 -16 7 0 9 -2 9 -6 -1 -2 -6 -10 -9
-16 -5 -6 4 -8 0 -4 -10 7 -18 -1 -47 -12 -47 -4 0 -5 16 -3 36 3 26 1 35 -7
30 -6 -4 -15 2 -20 16 l-10 23 0 -24 c-1 -13 -4 -22 -7 -18 -4 3 -3 19 1 34 6
27 7 28 22 8 15 -20 15 -20 10 2 -4 17 -1 20 12 15 9 -3 20 -10 24 -16 5 -6 6
0 3 14 -5 24 -4 24 9 6 11 -14 15 -16 15 -5z m1235 -420 c6 0 11 -7 13 -15 3
-12 -2 -13 -25 -7 -26 8 -28 6 -29 -20 -1 -16 3 -26 7 -23 5 3 9 -1 10 -8 0
-7 5 -2 10 12 l10 25 15 -25 c9 -14 13 -17 10 -7 -3 10 -2 16 3 12 5 -3 11 0
13 7 3 8 12 4 26 -10 12 -12 25 -22 30 -23 4 0 14 -5 22 -10 10 -6 0 -7 -27
-5 -28 2 -43 0 -43 -8 0 -7 -3 -7 -8 -1 -12 17 -32 16 -25 -1 5 -14 1 -13 -33
1 -22 10 -44 18 -49 18 -10 0 -40 26 -33 28 25 6 38 5 38 -4 0 -7 5 -4 11 6
13 22 4 37 -22 37 -10 0 -19 6 -19 13 -1 7 -5 6 -13 -5 -8 -10 -18 -13 -26 -8
-8 4 -35 6 -62 4 -41 -3 -49 0 -49 14 0 12 9 18 25 20 14 1 25 -3 25 -10 0 -6
9 -3 20 7 16 15 22 15 35 5 9 -7 15 -8 15 -2 0 12 42 3 53 -12 5 -6 5 0 1 13
l-6 24 33 -21 c19 -11 39 -21 44 -21z"/>
<path d="M17080 12070 c0 -6 11 -32 25 -58 14 -26 25 -56 25 -68 0 -25 34
-167 44 -183 4 -6 14 -11 22 -11 8 0 14 -4 14 -10 0 -5 5 -10 10 -10 17 0 11
84 -11 151 -12 35 -24 66 -28 69 -4 3 -13 20 -19 38 -7 17 -17 46 -23 62 -8
22 -18 30 -35 30 -13 0 -24 -5 -24 -10z"/>
<path d="M15252 12687 c3 -7 21 -23 42 -37 44 -29 28 -41 -21 -15 -19 11 -33
26 -33 37 0 10 -4 18 -10 18 -27 0 11 -72 72 -134 35 -37 42 -40 92 -40 34 -1
60 4 68 13 11 11 8 13 -17 7 -16 -4 -38 -9 -47 -12 -10 -3 -18 -1 -18 4 0 5
19 13 43 19 23 5 41 14 40 20 -1 6 8 8 22 5 28 -5 45 22 26 41 -8 8 -11 8 -11
-2 0 -10 -3 -11 -13 -2 -8 6 -16 8 -19 6 -3 -3 -17 -1 -32 5 -18 6 -25 6 -21
0 3 -6 2 -10 -4 -10 -5 0 -13 5 -16 10 -4 6 -16 8 -28 4 -20 -6 -21 -5 -7 12
8 10 19 22 24 25 19 14 -7 31 -40 26 -19 -3 -48 -2 -65 3 -22 7 -29 6 -27 -3z"/>
<path d="M17297 9784 c-23 -27 -32 -33 -42 -24 -11 9 -32 -1 -95 -43 -44 -31
-102 -63 -128 -73 -54 -20 -86 -43 -62 -45 8 -1 25 0 37 0 11 1 24 -2 27 -8 4
-6 -2 -8 -15 -6 -26 5 -92 -26 -69 -32 8 -3 22 -7 30 -10 28 -10 100 -11 100
-1 0 6 6 6 14 -1 7 -6 22 -9 32 -5 18 5 18 5 0 -10 -11 -9 -24 -16 -29 -16 -4
0 -5 -5 -1 -11 10 -16 64 41 64 67 0 13 12 32 28 44 15 12 34 36 42 53 8 18
20 31 25 30 17 -2 34 18 55 65 27 60 22 70 -13 26z"/>
<path d="M11050 8624 c0 -16 6 -24 17 -24 15 0 15 -1 0 -18 -18 -19 -24 -78
-8 -68 5 4 12 0 14 -6 4 -10 6 -10 6 0 1 15 33 16 48 1 7 -7 17 -8 25 -3 20
13 38 14 38 2 0 -6 6 -6 15 2 8 6 18 9 24 6 5 -4 19 7 31 24 l21 30 -20 0
c-12 0 -21 7 -21 15 0 17 26 20 35 4 7 -11 40 13 55 41 8 14 -8 16 -136 17
l-144 1 0 -24z"/>
<path d="M17166 8405 c-15 -39 27 -53 134 -44 24 2 92 1 206 -2 28 -1 56 1 63
5 6 4 11 2 11 -4 0 -6 5 -8 10 -5 13 8 572 11 586 3 5 -2 27 -3 49 -1 58 6
256 5 262 -1 3 -2 15 -1 28 4 14 5 26 5 34 -3 7 -7 11 -7 11 -1 0 10 61 10 87
0 7 -3 13 -2 13 2 0 7 180 7 463 2 75 -2 140 -1 143 2 3 3 19 2 37 -2 18 -4
41 -4 52 0 11 4 26 3 33 -2 7 -6 17 -7 25 -2 6 5 26 8 42 7 17 -1 77 -2 135
-2 58 0 119 0 135 0 17 0 73 0 125 -1 132 -2 130 -2 130 16 0 8 5 12 10 9 6
-3 10 3 10 13 0 14 -6 19 -17 17 -45 -10 -144 -12 -149 -4 -3 5 -10 7 -15 3
-13 -8 -785 -8 -798 0 -5 3 -12 0 -14 -6 -3 -7 -6 -8 -6 -3 -1 11 -102 12
-119 1 -6 -3 -13 -3 -16 2 -3 5 -20 7 -38 6 -37 -3 -117 -4 -163 -3 -16 1 -43
1 -60 0 -16 -1 -65 0 -107 1 -43 2 -78 0 -78 -3 0 -3 -21 -4 -47 -3 -83 4
-233 6 -387 4 -81 0 -150 1 -153 4 -2 2 -18 0 -35 -5 -20 -5 -36 -5 -44 2 -8
7 -14 7 -19 -1 -3 -6 -11 -8 -16 -5 -12 8 -499 8 -506 1 -3 -3 -14 -1 -23 4
-13 7 -20 6 -24 -5z"/>
<path d="M17160 8316 c0 -14 3 -27 8 -27 35 -6 1674 -3 1678 2 3 5 15 4 28 -1
15 -5 27 -5 35 3 7 7 11 7 11 0 0 -7 163 -10 527 -9 495 1 528 2 531 19 2 9 8
15 13 12 5 -4 9 1 9 9 0 14 -29 14 -67 1 -7 -2 -13 0 -13 5 0 5 -13 5 -32 0
-17 -5 -41 -7 -52 -5 -44 10 -97 12 -102 4 -3 -5 -13 -5 -22 0 -11 6 -24 6
-34 0 -11 -6 -19 -6 -23 1 -4 6 -11 8 -16 4 -8 -4 -239 -7 -399 -4 -8 1 -152
1 -320 1 -168 0 -312 0 -320 1 -8 0 -24 -3 -34 -8 -14 -5 -17 -4 -12 4 4 7 3
12 -3 12 -5 0 -13 -5 -16 -10 -5 -8 -11 -8 -20 0 -7 6 -16 7 -19 2 -5 -8 -189
-7 -204 2 -4 2 -16 0 -27 -4 -11 -4 -35 -3 -54 1 -20 4 -42 4 -53 -2 -10 -5
-18 -6 -18 -1 0 5 -20 6 -45 2 -25 -4 -45 -4 -45 -1 0 3 -30 5 -67 3 -38 -2
-77 -3 -88 -3 -25 0 -232 -1 -260 -1 -11 0 -69 0 -130 1 -60 0 -154 0 -209 0
-54 0 -107 3 -117 6 -15 5 -19 1 -19 -19z"/>
<path d="M11050 7760 c0 -13 1 -13 10 0 5 8 10 10 10 4 0 -7 33 -10 96 -10 53
1 97 -1 99 -3 3 -2 73 -3 157 -1 84 1 282 2 440 2 163 0 290 4 294 9 6 11 57
10 -579 12 -463 2 -527 0 -527 -13z"/>
</g>
</svg>
